<svg xmlns="http://www.w3.org/2000/svg" xmlns:xlink="http://www.w3.org/1999/xlink" width="500" zoomAndPan="magnify" viewBox="0 0 375 374.999991" height="500" preserveAspectRatio="xMidYMid meet" version="1.0"><defs><g/><clipPath id="ae07ffdfae"><path d="M 0 2 L 358 2 L 358 251.25 L 0 251.25 Z M 0 2 " clip-rule="nonzero"/></clipPath><clipPath id="a50977e5f7"><path d="M 356 246 L 375 246 L 375 251.25 L 356 251.25 Z M 356 246 " clip-rule="nonzero"/></clipPath></defs><path fill="#8da2ab" d="M 158.035156 27.386719 C 165.960938 27.320312 173.742188 28.339844 181.386719 30.445312 C 181.8125 22.441406 177.1875 14.066406 169.757812 9.496094 C 164.539062 6.285156 153.707031 2.371094 138.320312 10.535156 C 146.523438 13.523438 153.347656 19.460938 158.035156 27.386719 Z M 158.035156 27.386719 " fill-opacity="1" fill-rule="nonzero"/><path fill="#8da2ab" d="M 170.722656 192.929688 L 170.292969 192.929688 C 155.6875 192.929688 152.253906 217.386719 152.222656 217.65625 C 152.210938 217.847656 152.160156 218.03125 152.074219 218.203125 C 151.984375 218.375 151.867188 218.523438 151.714844 218.644531 C 151.566406 218.769531 151.398438 218.855469 151.210938 218.910156 C 151.027344 218.964844 150.835938 218.976562 150.644531 218.953125 C 150.453125 218.925781 150.273438 218.863281 150.109375 218.765625 C 149.941406 218.664062 149.800781 218.535156 149.691406 218.378906 C 149.578125 218.21875 149.5 218.046875 149.460938 217.855469 C 149.421875 217.667969 149.417969 217.476562 149.457031 217.289062 C 149.570312 216.402344 151.925781 199.707031 161.488281 192.929688 L 151.574219 192.929688 C 151.390625 192.929688 151.210938 192.894531 151.039062 192.824219 C 150.871094 192.753906 150.71875 192.652344 150.589844 192.523438 C 150.457031 192.390625 150.359375 192.242188 150.289062 192.070312 C 150.21875 191.898438 150.183594 191.722656 150.183594 191.535156 L 150.183594 171.554688 C 150.183594 171.371094 150.21875 171.191406 150.285156 171.019531 C 150.355469 170.851562 150.457031 170.699219 150.589844 170.566406 C 150.71875 170.4375 150.871094 170.335938 151.039062 170.265625 C 151.210938 170.191406 151.390625 170.15625 151.574219 170.15625 L 164.402344 170.15625 L 142.003906 159.320312 C 141.828125 159.246094 141.671875 159.140625 141.535156 159 C 141.402344 158.863281 141.300781 158.703125 141.234375 158.523438 C 141.164062 158.34375 141.136719 158.15625 141.144531 157.964844 C 141.152344 157.773438 141.199219 157.589844 141.28125 157.417969 C 141.363281 157.246094 141.480469 157.09375 141.625 156.96875 C 141.769531 156.84375 141.933594 156.75 142.117188 156.691406 C 142.300781 156.636719 142.488281 156.617188 142.679688 156.632812 C 142.871094 156.652344 143.050781 156.710938 143.21875 156.804688 L 168.070312 168.851562 C 168.796875 169.195312 169.550781 169.472656 170.328125 169.683594 C 171.105469 169.890625 171.894531 170.023438 172.699219 170.085938 C 173.503906 170.148438 174.304688 170.132812 175.105469 170.046875 C 175.90625 169.957031 176.691406 169.796875 177.460938 169.566406 C 178.234375 169.332031 178.976562 169.03125 179.691406 168.660156 C 180.40625 168.289062 181.082031 167.855469 181.714844 167.359375 C 182.351562 166.863281 182.933594 166.3125 183.46875 165.710938 C 184 165.105469 184.472656 164.457031 184.886719 163.765625 C 185.316406 163.046875 185.671875 162.292969 185.957031 161.503906 C 186.238281 160.714844 186.445312 159.90625 186.570312 159.078125 C 186.695312 158.25 186.738281 157.417969 186.703125 156.578125 C 186.664062 155.742188 186.546875 154.917969 186.351562 154.101562 C 186.152344 153.289062 185.878906 152.5 185.527344 151.738281 C 185.175781 150.976562 184.753906 150.257812 184.261719 149.578125 C 183.769531 148.902344 183.214844 148.277344 182.601562 147.707031 C 181.988281 147.132812 181.324219 146.628906 180.613281 146.1875 L 156.925781 131.320312 C 156.761719 131.226562 156.621094 131.101562 156.503906 130.949219 C 156.390625 130.796875 156.308594 130.628906 156.261719 130.445312 C 156.214844 130.261719 156.207031 130.074219 156.238281 129.886719 C 156.265625 129.699219 156.332031 129.523438 156.433594 129.363281 C 156.535156 129.203125 156.664062 129.066406 156.820312 128.957031 C 156.976562 128.847656 157.144531 128.773438 157.332031 128.734375 C 157.519531 128.695312 157.707031 128.695312 157.890625 128.734375 C 158.078125 128.769531 158.25 128.84375 158.40625 128.949219 L 171.363281 137.089844 C 171.46875 137.074219 171.574219 137.074219 171.675781 137.089844 C 189.792969 138.886719 204.355469 134.972656 213.792969 125.769531 C 217.183594 122.480469 219.800781 118.65625 221.636719 114.304688 C 219.96875 115.035156 218.222656 115.394531 216.402344 115.390625 C 214.707031 115.378906 213.0625 115.085938 211.472656 114.507812 C 209.878906 113.925781 208.433594 113.09375 207.128906 112.011719 C 206.988281 111.894531 206.871094 111.75 206.785156 111.589844 C 206.699219 111.425781 206.648438 111.25 206.632812 111.066406 C 206.617188 110.882812 206.636719 110.699219 206.691406 110.523438 C 206.746094 110.347656 206.832031 110.1875 206.949219 110.046875 C 207.070312 109.902344 207.210938 109.789062 207.375 109.703125 C 207.539062 109.617188 207.714844 109.566406 207.898438 109.550781 C 208.082031 109.535156 208.261719 109.554688 208.441406 109.609375 C 208.617188 109.664062 208.777344 109.753906 208.917969 109.871094 C 213.082031 113.355469 219.976562 113.953125 224.289062 108.910156 C 226.511719 106.300781 226.046875 96.003906 225.214844 89.882812 C 221.851562 85.191406 219.863281 79.183594 217.777344 72.777344 C 214.429688 62.578125 210.628906 51.023438 200.148438 42.683594 C 186.007812 31.4375 165.816406 30.292969 159.523438 30.214844 C 161.878906 34.976562 163.441406 39.984375 164.21875 45.234375 C 164.246094 45.417969 164.238281 45.597656 164.191406 45.777344 C 164.148438 45.957031 164.070312 46.121094 163.964844 46.269531 C 163.855469 46.417969 163.71875 46.542969 163.5625 46.636719 C 163.402344 46.734375 163.234375 46.792969 163.050781 46.820312 C 162.871094 46.851562 162.6875 46.84375 162.507812 46.796875 C 162.328125 46.753906 162.164062 46.675781 162.015625 46.566406 C 161.867188 46.457031 161.746094 46.324219 161.652344 46.167969 C 161.554688 46.007812 161.492188 45.839844 161.464844 45.65625 C 158.914062 28.765625 148.570312 15.976562 134.492188 12.207031 C 124.417969 9.515625 113.660156 11.734375 104.214844 18.429688 C 94.765625 25.125 87.636719 35.679688 84.339844 47.980469 C 81.046875 60.277344 81.949219 72.898438 86.847656 83.5 C 91.746094 94.101562 99.925781 101.28125 110 103.96875 C 114.738281 105.230469 119.519531 105.429688 124.347656 104.566406 C 124.53125 104.535156 124.710938 104.539062 124.890625 104.578125 C 125.070312 104.617188 125.238281 104.691406 125.390625 104.796875 C 125.542969 104.902344 125.667969 105.035156 125.765625 105.191406 C 125.863281 105.347656 125.929688 105.515625 125.960938 105.699219 C 125.996094 105.878906 125.992188 106.0625 125.949219 106.242188 C 125.910156 106.421875 125.835938 106.585938 125.730469 106.738281 C 125.625 106.890625 125.492188 107.015625 125.335938 107.113281 C 125.179688 107.214844 125.011719 107.277344 124.828125 107.3125 C 122.726562 107.683594 120.605469 107.875 118.46875 107.875 C 115.359375 107.875 112.300781 107.472656 109.296875 106.667969 C 99.796875 104.132812 91.839844 97.863281 86.503906 88.820312 C 86.414062 89.039062 86.277344 89.21875 86.089844 89.363281 C 85.9375 89.484375 70.039062 102.027344 57.046875 124.585938 C 45.066406 145.351562 33.152344 179.136719 44.371094 222.125 C 49.355469 241.234375 65.171875 244.898438 85.328125 247.679688 L 132.074219 247.679688 C 142.867188 246.589844 153.566406 244.921875 164.179688 242.671875 C 176.746094 239.953125 181.148438 224.136719 179.917969 210.570312 C 178.96875 200.503906 175.117188 193.074219 170.722656 192.929688 Z M 170.722656 192.929688 " fill-opacity="1" fill-rule="nonzero"/><path fill="#8da2ab" d="M 41.015625 220.171875 C 40.484375 219.367188 39.808594 218.710938 38.992188 218.203125 C 38.171875 217.695312 37.285156 217.378906 36.332031 217.257812 C 35.300781 217.117188 34.289062 217.199219 33.296875 217.496094 C 32.300781 217.792969 31.410156 218.28125 30.628906 218.960938 C 27.363281 221.765625 25.914062 227.605469 27.332031 232.246094 C 28.671875 236.632812 32.378906 239.960938 36.558594 240.511719 C 40.472656 241.023438 44.761719 239.257812 48.070312 235.769531 C 44.960938 231.941406 42.828125 227.625 41.671875 222.828125 C 41.4375 221.941406 41.230469 221.054688 41.015625 220.171875 Z M 41.015625 220.171875 " fill-opacity="1" fill-rule="nonzero"/><path fill="#ff8383" d="M 303.417969 168.804688 L 303.417969 160.128906 L 202.113281 160.128906 C 202.199219 160.726562 202.335938 161.308594 202.523438 161.882812 C 202.710938 162.453125 202.949219 163.003906 203.238281 163.535156 C 203.527344 164.0625 203.859375 164.5625 204.234375 165.03125 C 204.613281 165.5 205.027344 165.933594 205.480469 166.328125 C 205.9375 166.726562 206.421875 167.078125 206.941406 167.382812 C 207.457031 167.691406 208 167.953125 208.5625 168.164062 C 209.125 168.375 209.703125 168.535156 210.296875 168.640625 C 210.890625 168.75 211.488281 168.804688 212.089844 168.804688 Z M 303.417969 168.804688 " fill-opacity="1" fill-rule="nonzero"/><path fill="#ff8383" d="M 306.207031 158.738281 L 306.207031 165.027344 L 342.789062 101.90625 C 343.203125 101.195312 343.542969 100.449219 343.816406 99.671875 C 344.085938 98.894531 344.28125 98.101562 344.402344 97.285156 C 344.523438 96.472656 344.566406 95.652344 344.53125 94.832031 C 344.496094 94.007812 344.382812 93.199219 344.191406 92.398438 C 344.003906 91.597656 343.742188 90.820312 343.402344 90.070312 C 343.066406 89.320312 342.660156 88.605469 342.191406 87.933594 C 341.71875 87.257812 341.1875 86.632812 340.59375 86.0625 C 340.003906 85.488281 339.363281 84.976562 338.675781 84.523438 L 297.402344 157.355469 L 304.839844 157.355469 C 305.019531 157.359375 305.195312 157.394531 305.359375 157.46875 C 305.527344 157.539062 305.675781 157.640625 305.800781 157.769531 C 305.929688 157.898438 306.027344 158.046875 306.097656 158.214844 C 306.167969 158.382812 306.203125 158.554688 306.207031 158.738281 Z M 306.207031 158.738281 " fill-opacity="1" fill-rule="nonzero"/><path fill="#a67c52" d="M 183.777344 192.921875 L 205.851562 192.921875 L 205.851562 247.679688 L 183.777344 247.679688 Z M 183.777344 192.921875 " fill-opacity="1" fill-rule="nonzero"/><path fill="#a67c52" d="M 153.003906 190.128906 L 353.917969 190.128906 L 353.917969 172.945312 L 153.003906 172.945312 Z M 153.003906 190.128906 " fill-opacity="1" fill-rule="nonzero"/><path fill="#a67c52" d="M 292.121094 192.921875 L 314.195312 192.921875 L 314.195312 247.679688 L 292.121094 247.679688 Z M 292.121094 192.921875 " fill-opacity="1" fill-rule="nonzero"/><path fill="#ffffff" d="M 221.03125 82.054688 C 219.714844 82.523438 218.433594 83.074219 217.191406 83.71875 C 215.949219 84.359375 214.757812 85.082031 213.613281 85.886719 C 212.472656 86.691406 211.386719 87.566406 210.363281 88.519531 C 209.339844 89.472656 208.386719 90.492188 207.503906 91.574219 C 206.621094 92.65625 205.8125 93.796875 205.085938 94.988281 C 204.359375 96.183594 203.714844 97.421875 203.15625 98.703125 C 202.597656 99.984375 202.128906 101.296875 201.75 102.640625 C 201.371094 103.988281 201.085938 105.351562 200.890625 106.738281 C 200.257812 111.789062 201.03125 117.21875 204.085938 121.261719 C 207.144531 125.304688 212.800781 127.636719 217.5625 125.847656 C 223.242188 117.4375 228.804688 108.050781 228.484375 97.910156 C 228.300781 92.144531 224.953125 86.296875 221.03125 82.054688 Z M 221.03125 82.054688 " fill-opacity="1" fill-rule="nonzero"/><path fill="#4e6b75" d="M 126.648438 31.261719 C 129.53125 33.554688 132.503906 36.03125 134.078125 39.375 C 135.652344 42.714844 135.371094 47.261719 132.464844 49.515625 C 130.300781 51.175781 127.167969 51.320312 125.289062 53.292969 C 123.636719 55.027344 123.445312 57.6875 123.757812 60.074219 C 124.074219 62.457031 124.714844 64.828125 124.433594 67.203125 C 124.300781 68.144531 124.027344 69.046875 123.617188 69.902344 C 123.207031 70.761719 122.679688 71.535156 122.027344 72.230469 C 121.378906 72.921875 120.640625 73.503906 119.808594 73.96875 C 118.980469 74.433594 118.101562 74.761719 117.171875 74.953125 C 115.0625 75.351562 112.507812 75.152344 111.222656 76.875 C 109.816406 78.761719 111.101562 81.460938 112.707031 83.1875 C 113.78125 84.324219 114.976562 85.320312 116.292969 86.171875 C 117.605469 87.023438 119 87.710938 120.476562 88.230469 C 121.953125 88.753906 123.46875 89.09375 125.027344 89.253906 C 126.585938 89.414062 128.140625 89.390625 129.691406 89.179688 C 132.871094 88.722656 137.378906 87.367188 138.152344 83.996094 C 139.117188 79.769531 138.152344 74.136719 138.152344 69.78125 C 138.152344 67.210938 141.972656 65.789062 144.480469 65.398438 C 146.988281 65.011719 149.746094 65.046875 151.933594 63.703125 C 155.199219 61.699219 156.09375 57.152344 154.992188 53.476562 C 153.890625 49.800781 151.285156 46.820312 148.722656 43.96875 C 145.789062 40.695312 142.800781 37.417969 139.183594 34.917969 C 137.359375 33.621094 135.375 32.65625 133.226562 32.03125 C 131.074219 31.40625 128.882812 31.148438 126.648438 31.261719 Z M 126.648438 31.261719 " fill-opacity="1" fill-rule="nonzero"/><path fill="#4e6b75" d="M 168.804688 240.875 C 138.367188 244.070312 88.757812 246.753906 70.414062 225.292969 C 19.964844 166.222656 86.082031 89.363281 86.082031 89.363281 C 85.929688 89.484375 70.03125 102.027344 57.039062 124.585938 C 45.066406 145.351562 33.152344 179.136719 44.371094 222.125 C 49.355469 241.234375 65.171875 244.898438 85.328125 247.679688 L 132.074219 247.679688 C 142.867188 246.589844 153.566406 244.921875 164.179688 242.671875 C 165.8125 242.316406 167.355469 241.714844 168.804688 240.875 Z M 168.804688 240.875 " fill-opacity="1" fill-rule="nonzero"/><path fill="#4e6b75" d="M 185.566406 162.910156 C 180.460938 166.839844 173.113281 166.410156 167.128906 164.027344 C 161.144531 161.640625 155.976562 157.597656 150.3125 154.535156 C 148.359375 153.351562 146.25 152.621094 143.984375 152.339844 C 141.738281 152.179688 139.304688 152.964844 138.015625 154.816406 C 136.019531 157.691406 137.425781 161.613281 137.058594 165.089844 C 136.449219 170.953125 129.628906 175.277344 124.066406 173.328125 C 129.988281 179.777344 134.398438 187.132812 137.296875 195.398438 C 143.226562 197.523438 148.867188 200.546875 154.800781 202.664062 C 157.972656 199.148438 160.839844 196.015625 163.972656 192.5 C 159.761719 192.90625 155.304688 191.828125 151.367188 190.277344 C 150.425781 184.175781 150.835938 178.167969 152.597656 172.25 L 153.132812 172.75 C 159.835938 172.34375 166.226562 171.371094 172.929688 170.96875 C 175.515625 170.808594 178.152344 170.640625 180.519531 169.589844 C 182.890625 168.542969 185.3125 165.488281 185.566406 162.910156 Z M 185.566406 162.910156 " fill-opacity="1" fill-rule="nonzero"/><path fill="#afb9bc" d="M 79.777344 198.835938 C 79.777344 198.835938 83.492188 176.984375 104.34375 175.90625 C 127.429688 174.691406 123.085938 193.570312 132.105469 199.507812 C 138.332031 203.441406 144.910156 206.664062 151.835938 209.179688 L 153.996094 201.808594 L 136.984375 193.996094 C 136.984375 193.996094 130.636719 168.007812 108.136719 170.148438 C 85.632812 172.289062 76.132812 192.460938 79.777344 198.835938 Z M 79.777344 198.835938 " fill-opacity="1" fill-rule="nonzero"/><path fill="#afb9bc" d="M 217.800781 72.738281 C 214.453125 62.542969 210.652344 50.984375 200.171875 42.644531 C 186.03125 31.402344 165.835938 30.253906 159.546875 30.179688 C 160.425781 31.960938 161.191406 33.792969 161.839844 35.675781 C 161.839844 35.675781 188.210938 38.074219 199.609375 49.609375 C 211.003906 61.144531 221.195312 84.203125 221.195312 84.203125 L 221.332031 82.675781 C 220.03125 79.511719 218.929688 76.179688 217.800781 72.738281 Z M 217.800781 72.738281 " fill-opacity="1" fill-rule="nonzero"/><path fill="#afb9bc" d="M 138.097656 10.785156 C 146.941406 9.257812 156.445312 7.828125 164.5625 11.695312 C 166.324219 12.5625 167.941406 13.644531 169.417969 14.9375 C 170.894531 16.234375 172.175781 17.699219 173.265625 19.332031 C 174.355469 20.964844 175.214844 22.710938 175.84375 24.570312 C 176.472656 26.429688 176.851562 28.339844 176.972656 30.300781 C 179.65625 30.46875 181.796875 30.980469 184.480469 31.148438 C 183.714844 20.890625 176.125 10.96875 166.710938 6.835938 C 165.542969 6.339844 164.351562 5.929688 163.128906 5.597656 C 161.910156 5.261719 160.671875 5.015625 159.417969 4.847656 C 158.164062 4.683594 156.902344 4.601562 155.636719 4.605469 C 154.371094 4.609375 153.113281 4.695312 151.859375 4.871094 C 150.605469 5.042969 149.371094 5.300781 148.152344 5.640625 C 146.933594 5.980469 145.742188 6.398438 144.578125 6.898438 C 143.417969 7.398438 142.292969 7.972656 141.207031 8.625 C 140.125 9.273438 139.085938 9.996094 138.097656 10.785156 Z M 138.097656 10.785156 " fill-opacity="1" fill-rule="nonzero"/><path fill="#afb9bc" d="M 161.511719 45.617188 C 158.914062 28.765625 148.570312 15.976562 134.492188 12.207031 C 124.417969 9.515625 113.660156 11.734375 104.214844 18.429688 C 94.765625 25.125 87.636719 35.679688 84.339844 47.980469 C 83.6875 50.441406 83.195312 52.9375 82.871094 55.464844 L 83.035156 55.546875 C 83.035156 55.546875 93.863281 17.503906 123.164062 15.082031 C 149.015625 12.964844 161.511719 45.617188 161.511719 45.617188 Z M 161.511719 45.617188 " fill-opacity="1" fill-rule="nonzero"/><path fill="#c69c6d" d="M 153.210938 177.175781 L 353.917969 177.175781 L 353.917969 172.945312 L 153.164062 172.75 Z M 153.210938 177.175781 " fill-opacity="1" fill-rule="nonzero"/><path fill="#754c24" d="M 153.164062 184.152344 L 353.917969 184.152344 L 353.917969 190.128906 L 153.003906 190.128906 Z M 153.164062 184.152344 " fill-opacity="1" fill-rule="nonzero"/><path fill="#754c24" d="M 182.441406 203.515625 L 206.890625 203.515625 L 205.851562 192.921875 L 183.777344 192.921875 Z M 182.441406 203.515625 " fill-opacity="1" fill-rule="nonzero"/><path fill="#754c24" d="M 292.121094 203.347656 L 313.726562 203.347656 L 314.195312 192.921875 L 292.121094 192.921875 Z M 292.121094 203.347656 " fill-opacity="1" fill-rule="nonzero"/><path fill="#754c24" d="M 297.960938 194.128906 L 297.960938 249.140625 L 292.121094 247.679688 L 292.121094 192.921875 Z M 297.960938 194.128906 " fill-opacity="1" fill-rule="nonzero"/><path fill="#754c24" d="M 189.960938 192.789062 L 189.960938 249 L 183.777344 247.679688 L 182.378906 190.128906 Z M 189.960938 192.789062 " fill-opacity="1" fill-rule="nonzero"/><path fill="#ffcaca" d="M 202.832031 162.6875 L 303.417969 162.6875 L 303.417969 160.128906 L 202.113281 160.128906 Z M 202.832031 162.6875 " fill-opacity="1" fill-rule="nonzero"/><path fill="#db5656" d="M 304.808594 157.339844 L 344.019531 91.734375 C 344.5 92.558594 344.863281 93.429688 345.109375 94.351562 C 345.359375 95.273438 345.480469 96.210938 345.480469 97.164062 C 345.480469 98.117188 345.359375 99.054688 345.109375 99.976562 C 344.863281 100.898438 344.5 101.769531 344.019531 102.59375 C 340.6875 108.34375 306.910156 166.21875 306.910156 166.21875 Z M 304.808594 157.339844 " fill-opacity="1" fill-rule="nonzero"/><path fill="#ffcaca" d="M 299.753906 158.171875 L 341.160156 86.527344 L 338.675781 84.507812 L 297.371094 157.339844 Z M 299.753906 158.171875 " fill-opacity="1" fill-rule="nonzero"/><path fill="#db5656" d="M 204.300781 165.664062 L 303.15625 165.664062 L 303.417969 168.804688 L 207.894531 168.804688 Z M 204.300781 165.664062 " fill-opacity="1" fill-rule="nonzero"/><g clip-path="url(#ae07ffdfae)"><path fill="#000000" d="M 357.402344 171.554688 C 357.40625 171.277344 357.351562 171.011719 357.246094 170.753906 C 357.140625 170.5 356.992188 170.273438 356.796875 170.074219 C 356.601562 169.878906 356.375 169.726562 356.117188 169.621094 C 355.863281 169.515625 355.59375 169.460938 355.316406 169.460938 L 307.660156 169.460938 L 345.808594 103.640625 C 346.089844 103.160156 346.34375 102.664062 346.574219 102.15625 C 346.800781 101.652344 347.007812 101.132812 347.183594 100.605469 C 347.359375 100.078125 347.511719 99.539062 347.632812 98.996094 C 347.757812 98.453125 347.851562 97.90625 347.917969 97.351562 C 347.988281 96.800781 348.027344 96.246094 348.035156 95.6875 C 348.046875 95.132812 348.03125 94.574219 347.984375 94.019531 C 347.941406 93.464844 347.867188 92.914062 347.765625 92.367188 C 347.664062 91.816406 347.535156 91.277344 347.378906 90.742188 C 347.226562 90.207031 347.042969 89.683594 346.832031 89.164062 C 346.625 88.648438 346.390625 88.144531 346.128906 87.652344 C 345.867188 87.160156 345.582031 86.683594 345.273438 86.21875 C 344.964844 85.753906 344.632812 85.308594 344.28125 84.878906 C 343.925781 84.449219 343.550781 84.039062 343.15625 83.644531 C 342.761719 83.253906 342.34375 82.882812 341.914062 82.53125 C 341.480469 82.183594 341.027344 81.855469 340.5625 81.550781 C 340.097656 81.246094 339.617188 80.964844 339.121094 80.710938 C 338.878906 80.585938 338.625 80.511719 338.355469 80.484375 C 338.085938 80.460938 337.824219 80.488281 337.5625 80.5625 C 337.304688 80.640625 337.066406 80.761719 336.855469 80.929688 C 336.644531 81.097656 336.472656 81.300781 336.339844 81.535156 L 293.746094 156.621094 L 200.625 156.621094 C 200.347656 156.621094 200.078125 156.671875 199.820312 156.777344 C 199.566406 156.882812 199.335938 157.035156 199.140625 157.230469 C 198.945312 157.429688 198.792969 157.65625 198.6875 157.910156 C 198.582031 158.167969 198.527344 158.4375 198.53125 158.714844 C 198.53125 159.75 198.652344 160.769531 198.890625 161.777344 C 199.125 162.785156 199.472656 163.753906 199.933594 164.679688 C 200.390625 165.609375 200.949219 166.472656 201.609375 167.273438 C 202.265625 168.070312 203.003906 168.785156 203.828125 169.414062 L 184.59375 169.414062 C 185.90625 168.277344 187 166.957031 187.882812 165.464844 C 188.425781 164.550781 188.878906 163.59375 189.238281 162.59375 C 189.597656 161.59375 189.855469 160.570312 190.015625 159.515625 C 190.171875 158.464844 190.230469 157.410156 190.183594 156.347656 C 190.132812 155.285156 189.984375 154.238281 189.734375 153.207031 C 189.484375 152.175781 189.136719 151.175781 188.691406 150.210938 C 188.246094 149.246094 187.710938 148.332031 187.085938 147.472656 C 186.460938 146.609375 185.761719 145.820312 184.984375 145.09375 C 184.207031 144.371094 183.367188 143.726562 182.460938 143.167969 L 178.917969 140.933594 L 180.078125 140.933594 C 198.910156 140.933594 210.042969 134.253906 216.246094 128.191406 C 224.050781 120.585938 225.976562 112.417969 226.054688 112.074219 C 226.058594 112.058594 226.058594 112.046875 226.054688 112.035156 C 226.359375 111.738281 226.667969 111.414062 226.957031 111.070312 C 228.164062 109.65625 228.828125 107.304688 229.15625 104.636719 C 231.988281 102.082031 233.269531 97.136719 232.09375 91.960938 C 231.023438 87.269531 228.210938 83.628906 224.96875 82.1875 C 223.53125 78.960938 222.339844 75.304688 221.101562 71.585938 C 217.601562 60.929688 213.632812 48.84375 202.335938 39.847656 C 197.050781 35.753906 191.226562 32.695312 184.855469 30.675781 C 185.429688 21.242188 180.269531 11.75 171.585938 6.421875 C 161.222656 0.117188 147.753906 0.910156 134.515625 8.628906 C 123.675781 6.039062 112.234375 8.460938 102.195312 15.585938 C 92.007812 22.808594 84.46875 33.992188 80.976562 47.078125 C 77.484375 60.164062 78.449219 73.617188 83.691406 84.960938 C 83.90625 85.433594 84.140625 85.894531 84.371094 86.359375 C 84.21875 86.425781 84.078125 86.511719 83.941406 86.613281 C 83.269531 87.132812 67.417969 99.605469 54.070312 122.75 C 42.558594 142.6875 31.140625 174.285156 39.019531 214.351562 C 38.304688 214.085938 37.5625 213.902344 36.804688 213.800781 C 35.28125 213.597656 33.78125 213.714844 32.308594 214.152344 C 30.832031 214.589844 29.515625 215.3125 28.351562 216.316406 C 23.976562 220.078125 22.144531 227.203125 23.992188 233.261719 C 25.730469 238.941406 30.597656 243.238281 36.101562 243.964844 C 36.699219 244.046875 37.300781 244.089844 37.90625 244.085938 C 40.179688 244.019531 42.359375 243.53125 44.441406 242.621094 C 46.527344 241.710938 48.367188 240.441406 49.960938 238.820312 C 53.988281 242.605469 58.957031 245.148438 64.589844 246.984375 L 2.324219 246.984375 C 2.035156 246.964844 1.753906 247.007812 1.484375 247.105469 C 1.210938 247.203125 0.972656 247.351562 0.761719 247.550781 C 0.550781 247.746094 0.390625 247.980469 0.273438 248.242188 C 0.160156 248.507812 0.101562 248.785156 0.101562 249.074219 C 0.101562 249.363281 0.160156 249.640625 0.273438 249.90625 C 0.390625 250.171875 0.550781 250.402344 0.761719 250.597656 C 0.972656 250.796875 1.210938 250.945312 1.484375 251.042969 C 1.753906 251.140625 2.035156 251.183594 2.324219 251.164062 L 345.527344 251.164062 C 345.8125 251.183594 346.09375 251.140625 346.367188 251.042969 C 346.636719 250.945312 346.878906 250.796875 347.085938 250.597656 C 347.296875 250.402344 347.460938 250.171875 347.574219 249.90625 C 347.6875 249.640625 347.746094 249.363281 347.746094 249.074219 C 347.746094 248.785156 347.6875 248.507812 347.574219 248.242188 C 347.460938 247.980469 347.296875 247.746094 347.085938 247.550781 C 346.878906 247.351562 346.636719 247.203125 346.367188 247.105469 C 346.09375 247.007812 345.8125 246.964844 345.527344 246.984375 L 317.679688 246.984375 L 317.679688 193.625 L 355.316406 193.625 C 355.59375 193.621094 355.859375 193.570312 356.117188 193.460938 C 356.371094 193.355469 356.597656 193.203125 356.792969 193.007812 C 356.988281 192.8125 357.140625 192.585938 357.246094 192.328125 C 357.351562 192.074219 357.402344 191.804688 357.402344 191.527344 Z M 338.90625 85.535156 C 339.507812 85.980469 340.0625 86.480469 340.570312 87.03125 C 341.078125 87.578125 341.535156 88.171875 341.933594 88.800781 C 342.335938 89.433594 342.675781 90.097656 342.957031 90.792969 C 343.238281 91.488281 343.453125 92.203125 343.601562 92.933594 C 343.753906 93.667969 343.835938 94.410156 343.847656 95.160156 C 343.863281 95.90625 343.8125 96.652344 343.691406 97.390625 C 343.570312 98.128906 343.382812 98.851562 343.128906 99.558594 C 342.875 100.261719 342.5625 100.9375 342.1875 101.585938 L 306.902344 162.460938 L 306.902344 158.785156 C 306.902344 158.503906 306.847656 158.238281 306.742188 157.980469 C 306.636719 157.726562 306.484375 157.5 306.289062 157.300781 C 306.09375 157.105469 305.867188 156.953125 305.609375 156.847656 C 305.351562 156.742188 305.085938 156.6875 304.808594 156.6875 L 298.5625 156.6875 Z M 302.714844 160.824219 L 302.714844 168.085938 L 212.089844 168.085938 C 211.5625 168.085938 211.039062 168.042969 210.515625 167.957031 C 209.996094 167.867188 209.484375 167.738281 208.988281 167.5625 C 208.488281 167.390625 208.007812 167.175781 207.546875 166.921875 C 207.082031 166.667969 206.644531 166.375 206.230469 166.046875 C 205.816406 165.71875 205.433594 165.355469 205.082031 164.964844 C 204.726562 164.570312 204.410156 164.152344 204.128906 163.703125 C 203.847656 163.257812 203.605469 162.792969 203.402344 162.304688 C 203.199219 161.816406 203.035156 161.316406 202.917969 160.800781 Z M 169.398438 10.058594 C 176.347656 14.332031 180.773438 22.023438 180.71875 29.511719 C 173.421875 27.589844 166 26.644531 158.453125 26.675781 C 156.332031 23.050781 153.699219 19.847656 150.550781 17.070312 C 147.402344 14.289062 143.898438 12.070312 140.039062 10.410156 C 154.371094 3.355469 164.453125 7.019531 169.398438 10.058594 Z M 36.652344 239.8125 C 32.738281 239.300781 29.261719 236.175781 28 232.039062 C 26.652344 227.644531 28 222.105469 31.054688 219.488281 C 31.769531 218.878906 32.574219 218.441406 33.472656 218.171875 C 34.371094 217.90625 35.285156 217.835938 36.214844 217.960938 C 37.054688 218.070312 37.832031 218.347656 38.550781 218.785156 C 39.273438 219.226562 39.871094 219.796875 40.351562 220.492188 C 40.558594 221.332031 40.75 222.171875 40.96875 223.027344 C 42.105469 227.707031 44.144531 231.953125 47.085938 235.761719 C 44.035156 238.765625 40.175781 240.28125 36.652344 239.8125 Z M 45.058594 221.949219 C 33.90625 179.214844 45.738281 145.628906 57.625 124.984375 C 70.03125 103.449219 85.066406 91.089844 86.417969 89.996094 C 91.847656 98.757812 99.742188 104.839844 109.128906 107.339844 C 112.195312 108.160156 115.316406 108.570312 118.492188 108.570312 C 120.671875 108.570312 122.832031 108.378906 124.972656 108 C 125.246094 107.949219 125.5 107.847656 125.734375 107.695312 C 125.964844 107.542969 126.160156 107.351562 126.316406 107.125 C 126.476562 106.894531 126.582031 106.644531 126.640625 106.375 C 126.695312 106.101562 126.699219 105.828125 126.648438 105.558594 C 126.597656 105.285156 126.5 105.03125 126.347656 104.796875 C 126.195312 104.566406 126.007812 104.371094 125.777344 104.210938 C 125.546875 104.054688 125.296875 103.949219 125.027344 103.890625 C 124.753906 103.832031 124.484375 103.828125 124.210938 103.878906 C 119.488281 104.722656 114.804688 104.53125 110.167969 103.296875 C 100.292969 100.660156 92.238281 93.527344 87.46875 83.203125 C 82.636719 72.753906 81.765625 60.269531 84.996094 48.15625 C 88.230469 36.039062 95.226562 25.660156 104.621094 19.035156 C 113.890625 12.460938 124.4375 10.289062 134.308594 12.917969 C 148.121094 16.601562 158.269531 29.191406 160.792969 45.785156 C 160.835938 46.0625 160.929688 46.316406 161.074219 46.554688 C 161.214844 46.792969 161.402344 46.992188 161.625 47.15625 C 161.847656 47.320312 162.09375 47.433594 162.363281 47.5 C 162.632812 47.566406 162.90625 47.578125 163.179688 47.539062 C 163.457031 47.496094 163.710938 47.402344 163.949219 47.257812 C 164.1875 47.117188 164.386719 46.929688 164.550781 46.707031 C 164.714844 46.484375 164.832031 46.238281 164.898438 45.96875 C 164.964844 45.699219 164.976562 45.425781 164.9375 45.152344 C 164.203125 40.214844 162.785156 35.484375 160.679688 30.957031 C 167.910156 31.164062 186.527344 32.738281 199.738281 43.25 C 210.054688 51.457031 213.816406 62.910156 217.132812 73.011719 C 218.144531 76.070312 219.128906 79.066406 220.246094 81.863281 C 215.53125 83.125 212.945312 89.425781 214.476562 96.105469 C 215.867188 102.21875 220.230469 106.554688 224.640625 106.539062 C 224.5 107.246094 224.214844 107.890625 223.785156 108.472656 C 219.597656 113.371094 213.242188 112.585938 209.382812 109.359375 C 209.167969 109.195312 208.933594 109.082031 208.671875 109.007812 C 208.414062 108.9375 208.148438 108.917969 207.882812 108.949219 C 207.617188 108.980469 207.363281 109.058594 207.128906 109.183594 C 206.890625 109.3125 206.6875 109.480469 206.511719 109.6875 C 206.339844 109.894531 206.210938 110.125 206.128906 110.378906 C 206.046875 110.636719 206.011719 110.898438 206.03125 111.164062 C 206.046875 111.433594 206.113281 111.6875 206.230469 111.933594 C 206.347656 112.175781 206.503906 112.386719 206.699219 112.570312 C 208.070312 113.707031 209.589844 114.578125 211.257812 115.183594 C 212.929688 115.792969 214.652344 116.101562 216.429688 116.109375 C 217.761719 116.109375 219.066406 115.921875 220.34375 115.550781 C 218.546875 119.296875 216.152344 122.609375 213.160156 125.488281 C 203.871094 134.429688 189.5625 138.230469 171.769531 136.457031 L 171.585938 136.457031 L 158.796875 128.339844 C 158.5625 128.203125 158.3125 128.113281 158.042969 128.074219 C 157.773438 128.035156 157.507812 128.050781 157.242188 128.113281 C 156.980469 128.179688 156.738281 128.292969 156.515625 128.453125 C 156.296875 128.609375 156.113281 128.804688 155.96875 129.035156 C 155.824219 129.265625 155.730469 129.515625 155.683594 129.78125 C 155.632812 130.050781 155.640625 130.316406 155.695312 130.582031 C 155.75 130.847656 155.855469 131.09375 156.007812 131.320312 C 156.160156 131.542969 156.347656 131.734375 156.574219 131.886719 L 180.269531 146.738281 C 180.941406 147.15625 181.566406 147.636719 182.144531 148.175781 C 182.722656 148.71875 183.242188 149.308594 183.707031 149.953125 C 184.171875 150.59375 184.570312 151.273438 184.898438 151.992188 C 185.230469 152.710938 185.492188 153.457031 185.675781 154.226562 C 185.863281 154.996094 185.976562 155.777344 186.011719 156.566406 C 186.046875 157.359375 186.003906 158.144531 185.886719 158.929688 C 185.769531 159.710938 185.578125 160.476562 185.3125 161.222656 C 185.046875 161.96875 184.710938 162.679688 184.304688 163.363281 C 183.914062 164.015625 183.46875 164.628906 182.964844 165.199219 C 182.460938 165.769531 181.90625 166.289062 181.308594 166.757812 C 180.707031 167.226562 180.070312 167.636719 179.390625 167.984375 C 178.714844 168.335938 178.015625 168.621094 177.285156 168.839844 C 176.554688 169.0625 175.8125 169.210938 175.054688 169.292969 C 174.300781 169.375 173.542969 169.390625 172.78125 169.332031 C 172.023438 169.273438 171.277344 169.144531 170.539062 168.949219 C 169.804688 168.753906 169.09375 168.492188 168.40625 168.164062 L 143.585938 156.152344 C 143.339844 156.039062 143.078125 155.976562 142.804688 155.964844 C 142.53125 155.953125 142.261719 155.992188 142.007812 156.085938 C 141.75 156.179688 141.515625 156.316406 141.3125 156.5 C 141.109375 156.683594 140.949219 156.898438 140.828125 157.144531 C 140.710938 157.390625 140.640625 157.648438 140.625 157.921875 C 140.605469 158.195312 140.640625 158.464844 140.726562 158.722656 C 140.816406 158.984375 140.949219 159.214844 141.125 159.425781 C 141.304688 159.632812 141.515625 159.796875 141.761719 159.921875 L 161.417969 169.4375 L 151.574219 169.4375 C 151.296875 169.4375 151.03125 169.492188 150.773438 169.597656 C 150.515625 169.703125 150.289062 169.855469 150.09375 170.050781 C 149.898438 170.25 149.746094 170.476562 149.640625 170.730469 C 149.535156 170.988281 149.480469 171.253906 149.480469 171.53125 L 149.480469 191.507812 C 149.480469 191.785156 149.535156 192.050781 149.640625 192.308594 C 149.746094 192.5625 149.898438 192.789062 150.09375 192.988281 C 150.289062 193.183594 150.515625 193.335938 150.773438 193.441406 C 151.03125 193.546875 151.296875 193.601562 151.574219 193.601562 L 159.449219 193.601562 C 157.386719 195.496094 155.683594 197.671875 154.339844 200.128906 L 146.460938 197.773438 C 145.320312 197.449219 144.238281 196.992188 143.210938 196.398438 C 142.1875 195.804688 141.246094 195.09375 140.398438 194.269531 C 139.550781 193.441406 138.8125 192.523438 138.195312 191.515625 C 137.574219 190.503906 137.085938 189.433594 136.730469 188.304688 C 133.046875 176.074219 121.941406 168.132812 108.449219 168.085938 L 108.355469 168.085938 C 106.160156 168.125 103.984375 168.371094 101.832031 168.828125 C 99.679688 169.28125 97.59375 169.941406 95.566406 170.796875 C 93.542969 171.65625 91.617188 172.699219 89.792969 173.925781 C 87.96875 175.15625 86.28125 176.546875 84.722656 178.097656 C 83.285156 179.492188 82.003906 181.019531 80.875 182.671875 C 79.746094 184.324219 78.792969 186.074219 78.015625 187.917969 C 77.238281 189.761719 76.652344 191.667969 76.261719 193.628906 C 75.867188 195.59375 75.675781 197.574219 75.679688 199.578125 C 75.679688 199.855469 75.734375 200.121094 75.839844 200.378906 C 75.945312 200.636719 76.097656 200.863281 76.292969 201.058594 C 76.488281 201.253906 76.714844 201.40625 76.972656 201.511719 C 77.230469 201.617188 77.496094 201.671875 77.773438 201.671875 C 78.050781 201.671875 78.320312 201.617188 78.574219 201.511719 C 78.832031 201.40625 79.058594 201.253906 79.253906 201.058594 C 79.453125 200.863281 79.601562 200.636719 79.710938 200.378906 C 79.816406 200.121094 79.867188 199.855469 79.867188 199.578125 C 79.867188 197.851562 80.039062 196.144531 80.382812 194.453125 C 80.726562 192.761719 81.234375 191.121094 81.90625 189.53125 C 82.578125 187.945312 83.402344 186.4375 84.378906 185.015625 C 85.355469 183.589844 86.464844 182.28125 87.703125 181.078125 C 89.066406 179.71875 90.542969 178.5 92.136719 177.421875 C 93.734375 176.34375 95.417969 175.429688 97.1875 174.675781 C 98.960938 173.921875 100.785156 173.347656 102.667969 172.945312 C 104.550781 172.542969 106.457031 172.324219 108.378906 172.289062 L 108.457031 172.289062 C 120.257812 172.328125 129.570312 178.933594 132.753906 189.527344 C 133.210938 190.988281 133.835938 192.375 134.632812 193.679688 C 135.433594 194.988281 136.378906 196.175781 137.472656 197.246094 C 138.566406 198.320312 139.777344 199.242188 141.097656 200.011719 C 142.421875 200.78125 143.820312 201.378906 145.292969 201.800781 L 152.484375 203.949219 C 150.695312 208.207031 149.457031 212.617188 148.761719 217.179688 C 148.714844 217.460938 148.726562 217.738281 148.792969 218.011719 C 148.859375 218.289062 148.976562 218.539062 149.148438 218.765625 C 149.316406 218.996094 149.523438 219.179688 149.765625 219.324219 C 150.011719 219.46875 150.273438 219.558594 150.554688 219.59375 C 150.835938 219.632812 151.109375 219.613281 151.382812 219.539062 C 151.65625 219.464844 151.90625 219.335938 152.128906 219.164062 C 152.347656 218.988281 152.527344 218.773438 152.664062 218.527344 C 152.800781 218.277344 152.882812 218.011719 152.914062 217.730469 C 152.949219 217.488281 156.34375 193.179688 170.699219 193.617188 C 174.675781 193.746094 178.34375 201.066406 179.199219 210.652344 C 180.398438 223.898438 176.140625 239.347656 163.996094 241.992188 C 153.433594 244.230469 142.785156 245.894531 132.046875 246.984375 L 85.371094 246.984375 C 65.5 244.238281 49.914062 240.625 45.042969 221.949219 Z M 288.625 193.625 L 288.625 246.984375 L 209.339844 246.984375 L 209.339844 193.625 Z M 205.15625 246.984375 L 184.441406 246.984375 L 184.441406 193.625 L 205.15625 193.625 Z M 180.292969 246.984375 L 160.523438 246.984375 C 162.351562 246.625 163.828125 246.3125 164.890625 246.082031 C 172.34375 244.46875 177.347656 239.101562 180.292969 232.238281 Z M 180.292969 197.707031 C 179.652344 196.253906 178.859375 194.894531 177.914062 193.625 L 180.292969 193.625 Z M 313.492188 246.984375 L 292.816406 246.984375 L 292.816406 193.625 L 313.492188 193.625 Z M 353.238281 189.433594 L 153.738281 189.433594 L 153.738281 173.644531 L 353.238281 173.644531 Z M 353.238281 189.433594 " fill-opacity="1" fill-rule="nonzero"/></g><path fill="#000000" d="M 201.984375 69.863281 C 201.984375 70.539062 201.917969 71.203125 201.789062 71.867188 C 201.65625 72.527344 201.460938 73.167969 201.203125 73.789062 C 200.945312 74.410156 200.628906 75.003906 200.257812 75.5625 C 199.882812 76.125 199.457031 76.640625 198.980469 77.117188 C 198.503906 77.59375 197.984375 78.019531 197.425781 78.394531 C 196.867188 78.765625 196.273438 79.082031 195.652344 79.339844 C 195.03125 79.597656 194.390625 79.792969 193.726562 79.925781 C 193.066406 80.054688 192.402344 80.121094 191.726562 80.121094 C 191.054688 80.121094 190.386719 80.054688 189.726562 79.925781 C 189.066406 79.792969 188.421875 79.597656 187.800781 79.339844 C 187.179688 79.082031 186.589844 78.765625 186.027344 78.394531 C 185.46875 78.019531 184.949219 77.59375 184.472656 77.117188 C 183.996094 76.640625 183.570312 76.125 183.199219 75.5625 C 182.824219 75.003906 182.507812 74.410156 182.25 73.789062 C 181.992188 73.167969 181.796875 72.527344 181.667969 71.867188 C 181.535156 71.203125 181.46875 70.539062 181.46875 69.863281 C 181.46875 69.191406 181.535156 68.523438 181.667969 67.863281 C 181.796875 67.203125 181.992188 66.5625 182.25 65.9375 C 182.507812 65.316406 182.824219 64.726562 183.199219 64.164062 C 183.570312 63.605469 183.996094 63.085938 184.472656 62.609375 C 184.949219 62.132812 185.46875 61.710938 186.027344 61.335938 C 186.589844 60.960938 187.179688 60.644531 187.800781 60.386719 C 188.421875 60.128906 189.066406 59.933594 189.726562 59.804688 C 190.386719 59.671875 191.054688 59.605469 191.726562 59.605469 C 192.402344 59.605469 193.066406 59.671875 193.726562 59.804688 C 194.390625 59.933594 195.03125 60.128906 195.652344 60.386719 C 196.273438 60.644531 196.867188 60.960938 197.425781 61.335938 C 197.984375 61.710938 198.503906 62.132812 198.980469 62.609375 C 199.457031 63.085938 199.882812 63.605469 200.257812 64.164062 C 200.628906 64.726562 200.945312 65.316406 201.203125 65.9375 C 201.460938 66.5625 201.65625 67.203125 201.789062 67.863281 C 201.917969 68.523438 201.984375 69.191406 201.984375 69.863281 Z M 201.984375 69.863281 " fill-opacity="1" fill-rule="nonzero"/><g clip-path="url(#a50977e5f7)"><path fill="#000000" d="M 372.675781 246.984375 L 359.125 246.984375 C 358.835938 246.964844 358.554688 247.007812 358.285156 247.105469 C 358.011719 247.203125 357.773438 247.351562 357.5625 247.550781 C 357.351562 247.746094 357.1875 247.980469 357.074219 248.242188 C 356.960938 248.507812 356.902344 248.785156 356.902344 249.074219 C 356.902344 249.363281 356.960938 249.640625 357.074219 249.90625 C 357.1875 250.171875 357.351562 250.402344 357.5625 250.597656 C 357.773438 250.796875 358.011719 250.945312 358.285156 251.042969 C 358.554688 251.140625 358.835938 251.183594 359.125 251.164062 L 372.675781 251.164062 C 372.964844 251.183594 373.246094 251.140625 373.515625 251.042969 C 373.789062 250.945312 374.027344 250.796875 374.238281 250.597656 C 374.449219 250.402344 374.609375 250.171875 374.726562 249.90625 C 374.839844 249.640625 374.898438 249.363281 374.898438 249.074219 C 374.898438 248.785156 374.839844 248.507812 374.726562 248.242188 C 374.609375 247.980469 374.449219 247.746094 374.238281 247.550781 C 374.027344 247.351562 373.789062 247.203125 373.515625 247.105469 C 373.246094 247.007812 372.964844 246.964844 372.675781 246.984375 Z M 372.675781 246.984375 " fill-opacity="1" fill-rule="nonzero"/></g><path fill="#000000" d="M 133.113281 91.382812 C 134.136719 90.867188 135.074219 90.230469 135.925781 89.46875 C 136.777344 88.703125 137.515625 87.84375 138.136719 86.882812 C 138.753906 85.921875 139.238281 84.898438 139.585938 83.808594 C 139.933594 82.71875 140.128906 81.601562 140.179688 80.457031 C 140.175781 78.949219 140.03125 77.457031 139.734375 75.980469 C 139.589844 75.136719 139.453125 74.335938 139.382812 73.554688 C 139.296875 72.601562 139.238281 70.253906 140.535156 69.113281 C 141.5 68.257812 143.050781 68.144531 144.855469 68.007812 C 146.3125 67.953125 147.738281 67.71875 149.136719 67.3125 C 154.058594 65.683594 156.535156 60.324219 156.4375 55.84375 C 156.351562 52.023438 154.777344 48.0625 151.628906 43.820312 C 150.214844 41.929688 148.660156 40.164062 146.964844 38.523438 C 145.265625 36.882812 143.449219 35.386719 141.511719 34.042969 C 139.570312 32.695312 137.535156 31.511719 135.40625 30.496094 C 133.277344 29.476562 131.078125 28.636719 128.8125 27.976562 C 128.542969 27.898438 128.269531 27.875 127.992188 27.90625 C 127.714844 27.9375 127.453125 28.023438 127.207031 28.15625 C 126.964844 28.292969 126.753906 28.46875 126.582031 28.6875 C 126.40625 28.90625 126.28125 29.148438 126.203125 29.417969 C 126.125 29.6875 126.101562 29.960938 126.132812 30.238281 C 126.164062 30.515625 126.246094 30.777344 126.382812 31.019531 C 126.515625 31.265625 126.695312 31.476562 126.910156 31.648438 C 127.128906 31.824219 127.375 31.949219 127.640625 32.027344 C 131.769531 33.226562 135.597656 35.054688 139.128906 37.503906 C 142.660156 39.957031 145.710938 42.90625 148.28125 46.351562 C 150.894531 49.867188 152.203125 53.015625 152.269531 55.96875 C 152.339844 58.917969 150.808594 62.359375 147.820312 63.367188 C 146.746094 63.660156 145.648438 63.824219 144.535156 63.863281 C 142.304688 64.03125 139.78125 64.222656 137.769531 66.003906 C 135.757812 67.785156 134.910156 70.542969 135.210938 73.953125 C 135.300781 74.910156 135.453125 75.828125 135.605469 76.714844 C 135.851562 77.917969 135.980469 79.136719 135.996094 80.367188 C 135.972656 81.128906 135.851562 81.875 135.625 82.605469 C 135.394531 83.335938 135.074219 84.019531 134.660156 84.660156 C 134.246094 85.300781 133.75 85.875 133.179688 86.378906 C 132.605469 86.886719 131.976562 87.304688 131.289062 87.636719 C 130.601562 87.972656 129.882812 88.203125 129.128906 88.339844 C 128.378906 88.476562 127.625 88.507812 126.863281 88.433594 C 126.101562 88.363281 125.367188 88.1875 124.652344 87.914062 C 123.941406 87.640625 123.277344 87.273438 122.667969 86.816406 C 122.445312 86.695312 122.210938 86.617188 121.960938 86.578125 C 121.714844 86.539062 121.464844 86.546875 121.21875 86.601562 C 120.972656 86.652344 120.742188 86.746094 120.53125 86.878906 C 120.316406 87.015625 120.132812 87.183594 119.980469 87.382812 C 119.828125 87.582031 119.71875 87.804688 119.644531 88.046875 C 119.570312 88.285156 119.542969 88.53125 119.558594 88.785156 C 119.578125 89.035156 119.636719 89.277344 119.738281 89.507812 C 119.84375 89.734375 119.980469 89.941406 120.160156 90.121094 C 121.257812 90.921875 122.453125 91.53125 123.746094 91.949219 C 125.039062 92.367188 126.367188 92.574219 127.726562 92.566406 C 129.613281 92.582031 131.410156 92.1875 133.113281 91.382812 Z M 133.113281 91.382812 " fill-opacity="1" fill-rule="nonzero"/><path fill="#ffffff" d="M 199.953125 72.792969 C 199.953125 73.289062 199.855469 73.769531 199.664062 74.230469 C 199.472656 74.691406 199.203125 75.097656 198.851562 75.449219 C 198.496094 75.804688 198.089844 76.074219 197.628906 76.265625 C 197.167969 76.457031 196.691406 76.550781 196.191406 76.550781 C 195.691406 76.550781 195.210938 76.457031 194.75 76.265625 C 194.289062 76.074219 193.882812 75.804688 193.53125 75.449219 C 193.179688 75.097656 192.90625 74.691406 192.714844 74.230469 C 192.527344 73.769531 192.429688 73.289062 192.429688 72.792969 C 192.429688 72.292969 192.527344 71.8125 192.714844 71.351562 C 192.90625 70.890625 193.179688 70.484375 193.53125 70.132812 C 193.882812 69.78125 194.289062 69.507812 194.75 69.316406 C 195.210938 69.125 195.691406 69.03125 196.191406 69.03125 C 196.691406 69.03125 197.167969 69.125 197.628906 69.316406 C 198.089844 69.507812 198.496094 69.78125 198.851562 70.132812 C 199.203125 70.484375 199.472656 70.890625 199.664062 71.351562 C 199.855469 71.8125 199.953125 72.292969 199.953125 72.792969 Z M 199.953125 72.792969 " fill-opacity="1" fill-rule="nonzero"/><g fill="#ffffff" fill-opacity="1"><g transform="translate(74.742167, 306.119569)"><g><path d="M 1.6875 -21.203125 C 1.46875 -21.535156 1.265625 -21.988281 1.078125 -22.5625 C 0.898438 -23.144531 0.8125 -23.753906 0.8125 -24.390625 C 0.8125 -25.578125 1.078125 -26.425781 1.609375 -26.9375 C 2.140625 -27.457031 2.832031 -27.71875 3.6875 -27.71875 L 23.53125 -27.71875 C 23.738281 -27.382812 23.929688 -26.925781 24.109375 -26.34375 C 24.296875 -25.769531 24.390625 -25.164062 24.390625 -24.53125 C 24.390625 -23.34375 24.125 -22.488281 23.59375 -21.96875 C 23.0625 -21.457031 22.375 -21.203125 21.53125 -21.203125 L 16.484375 -21.203125 L 16.484375 -0.1875 C 16.140625 -0.09375 15.613281 0 14.90625 0.09375 C 14.195312 0.1875 13.492188 0.234375 12.796875 0.234375 C 12.097656 0.234375 11.484375 0.175781 10.953125 0.0625 C 10.421875 -0.0390625 9.972656 -0.226562 9.609375 -0.5 C 9.242188 -0.769531 8.96875 -1.144531 8.78125 -1.625 C 8.601562 -2.113281 8.515625 -2.753906 8.515625 -3.546875 L 8.515625 -21.203125 Z M 1.6875 -21.203125 "/></g></g></g><g fill="#ffffff" fill-opacity="1"><g transform="translate(97.317546, 306.119569)"><g><path d="M 10.875 -8.921875 L 10.875 -0.1875 C 10.539062 -0.09375 10.015625 0 9.296875 0.09375 C 8.585938 0.1875 7.882812 0.234375 7.1875 0.234375 C 6.488281 0.234375 5.875 0.175781 5.34375 0.0625 C 4.8125 -0.0390625 4.367188 -0.226562 4.015625 -0.5 C 3.671875 -0.769531 3.40625 -1.144531 3.21875 -1.625 C 3.039062 -2.113281 2.953125 -2.753906 2.953125 -3.546875 L 2.953125 -24.984375 C 2.953125 -25.617188 3.125 -26.109375 3.46875 -26.453125 C 3.820312 -26.804688 4.304688 -27.09375 4.921875 -27.3125 C 5.953125 -27.675781 7.148438 -27.941406 8.515625 -28.109375 C 9.878906 -28.273438 11.332031 -28.359375 12.875 -28.359375 C 17.0625 -28.359375 20.21875 -27.476562 22.34375 -25.71875 C 24.46875 -23.957031 25.53125 -21.578125 25.53125 -18.578125 C 25.53125 -16.691406 25.046875 -15.082031 24.078125 -13.75 C 23.109375 -12.414062 21.957031 -11.382812 20.625 -10.65625 C 21.707031 -9.164062 22.78125 -7.765625 23.84375 -6.453125 C 24.90625 -5.148438 25.742188 -3.96875 26.359375 -2.90625 C 26.046875 -1.84375 25.488281 -1.03125 24.6875 -0.46875 C 23.882812 0.0820312 22.984375 0.359375 21.984375 0.359375 C 21.316406 0.359375 20.738281 0.28125 20.25 0.125 C 19.769531 -0.0195312 19.347656 -0.226562 18.984375 -0.5 C 18.617188 -0.769531 18.285156 -1.101562 17.984375 -1.5 C 17.679688 -1.894531 17.390625 -2.320312 17.109375 -2.78125 L 13.296875 -8.921875 Z M 13.75 -14.96875 C 14.894531 -14.96875 15.800781 -15.265625 16.46875 -15.859375 C 17.144531 -16.453125 17.484375 -17.328125 17.484375 -18.484375 C 17.484375 -19.628906 17.109375 -20.5 16.359375 -21.09375 C 15.617188 -21.6875 14.441406 -21.984375 12.828125 -21.984375 C 12.378906 -21.984375 12.015625 -21.96875 11.734375 -21.9375 C 11.460938 -21.90625 11.160156 -21.859375 10.828125 -21.796875 L 10.828125 -14.96875 Z M 13.75 -14.96875 "/></g></g></g><g fill="#ffffff" fill-opacity="1"><g transform="translate(122.305271, 306.119569)"><g><path d="M 1.59375 -13.84375 C 1.59375 -16.207031 1.960938 -18.296875 2.703125 -20.109375 C 3.453125 -21.929688 4.46875 -23.457031 5.75 -24.6875 C 7.039062 -25.914062 8.554688 -26.847656 10.296875 -27.484375 C 12.046875 -28.128906 13.9375 -28.453125 15.96875 -28.453125 C 18.007812 -28.453125 19.898438 -28.128906 21.640625 -27.484375 C 23.390625 -26.847656 24.914062 -25.914062 26.21875 -24.6875 C 27.519531 -23.457031 28.539062 -21.929688 29.28125 -20.109375 C 30.03125 -18.296875 30.40625 -16.207031 30.40625 -13.84375 C 30.40625 -11.46875 30.039062 -9.363281 29.3125 -7.53125 C 28.582031 -5.695312 27.570312 -4.164062 26.28125 -2.9375 C 24.988281 -1.707031 23.460938 -0.773438 21.703125 -0.140625 C 19.953125 0.492188 18.039062 0.8125 15.96875 0.8125 C 13.90625 0.8125 11.992188 0.488281 10.234375 -0.15625 C 8.472656 -0.8125 6.957031 -1.757812 5.6875 -3 C 4.414062 -4.25 3.414062 -5.78125 2.6875 -7.59375 C 1.957031 -9.414062 1.59375 -11.5 1.59375 -13.84375 Z M 9.78125 -13.84375 C 9.78125 -11.070312 10.34375 -9.003906 11.46875 -7.640625 C 12.59375 -6.273438 14.09375 -5.59375 15.96875 -5.59375 C 17.882812 -5.59375 19.40625 -6.273438 20.53125 -7.640625 C 21.65625 -9.003906 22.21875 -11.070312 22.21875 -13.84375 C 22.21875 -16.570312 21.660156 -18.617188 20.546875 -19.984375 C 19.441406 -21.347656 17.929688 -22.03125 16.015625 -22.03125 C 14.140625 -22.03125 12.628906 -21.351562 11.484375 -20 C 10.347656 -18.65625 9.78125 -16.601562 9.78125 -13.84375 Z M 11.921875 6.421875 C 11.921875 5.359375 12.300781 4.4375 13.0625 3.65625 C 13.820312 2.882812 14.789062 2.5 15.96875 2.5 C 17.15625 2.5 18.128906 2.882812 18.890625 3.65625 C 19.648438 4.4375 20.03125 5.359375 20.03125 6.421875 C 20.03125 7.484375 19.648438 8.398438 18.890625 9.171875 C 18.128906 9.941406 17.15625 10.328125 15.96875 10.328125 C 14.789062 10.328125 13.820312 9.941406 13.0625 9.171875 C 12.300781 8.398438 11.921875 7.484375 11.921875 6.421875 Z M 11.921875 6.421875 "/></g></g></g><g fill="#ffffff" fill-opacity="1"><g transform="translate(151.571496, 306.119569)"><g><path d="M 27.953125 -0.953125 C 27.523438 -0.523438 26.90625 -0.203125 26.09375 0.015625 C 25.289062 0.242188 24.332031 0.359375 23.21875 0.359375 C 22.09375 0.359375 21.03125 0.191406 20.03125 -0.140625 C 19.03125 -0.472656 18.207031 -1.273438 17.5625 -2.546875 L 13.0625 -11.75 C 12.601562 -12.6875 12.191406 -13.570312 11.828125 -14.40625 C 11.460938 -15.238281 11.070312 -16.203125 10.65625 -17.296875 L 10.375 -17.25 C 10.5 -15.613281 10.566406 -13.941406 10.578125 -12.234375 C 10.597656 -10.535156 10.609375 -8.867188 10.609375 -7.234375 L 10.609375 -0.1875 C 10.273438 -0.09375 9.765625 0 9.078125 0.09375 C 8.398438 0.1875 7.726562 0.234375 7.0625 0.234375 C 6.382812 0.234375 5.785156 0.1875 5.265625 0.09375 C 4.753906 0 4.332031 -0.179688 4 -0.453125 C 3.664062 -0.722656 3.40625 -1.09375 3.21875 -1.5625 C 3.039062 -2.039062 2.953125 -2.65625 2.953125 -3.40625 L 2.953125 -26.171875 C 3.378906 -26.773438 4.03125 -27.226562 4.90625 -27.53125 C 5.789062 -27.832031 6.734375 -27.984375 7.734375 -27.984375 C 8.859375 -27.984375 9.925781 -27.804688 10.9375 -27.453125 C 11.957031 -27.109375 12.769531 -26.316406 13.375 -25.078125 L 17.9375 -15.890625 C 18.382812 -14.941406 18.789062 -14.050781 19.15625 -13.21875 C 19.519531 -12.382812 19.914062 -11.421875 20.34375 -10.328125 L 20.578125 -10.375 C 20.453125 -12.007812 20.375 -13.644531 20.34375 -15.28125 C 20.3125 -16.925781 20.296875 -18.566406 20.296875 -20.203125 L 20.296875 -27.578125 C 20.628906 -27.671875 21.132812 -27.757812 21.8125 -27.84375 C 22.5 -27.9375 23.175781 -27.984375 23.84375 -27.984375 C 25.1875 -27.984375 26.207031 -27.75 26.90625 -27.28125 C 27.601562 -26.8125 27.953125 -25.832031 27.953125 -24.34375 Z M 27.953125 -0.953125 "/></g></g></g><g fill="#ffffff" fill-opacity="1"><g transform="translate(179.745343, 306.119569)"><g><path d="M 27.953125 -4.5 C 27.953125 -3.5625 27.78125 -2.863281 27.4375 -2.40625 C 27.101562 -1.957031 26.578125 -1.519531 25.859375 -1.09375 C 25.429688 -0.851562 24.894531 -0.617188 24.25 -0.390625 C 23.613281 -0.160156 22.914062 0.0351562 22.15625 0.203125 C 21.40625 0.367188 20.613281 0.5 19.78125 0.59375 C 18.945312 0.6875 18.117188 0.734375 17.296875 0.734375 C 15.109375 0.734375 13.054688 0.4375 11.140625 -0.15625 C 9.234375 -0.75 7.570312 -1.644531 6.15625 -2.84375 C 4.75 -4.039062 3.632812 -5.535156 2.8125 -7.328125 C 2 -9.117188 1.59375 -11.195312 1.59375 -13.5625 C 1.59375 -16.050781 2.039062 -18.21875 2.9375 -20.0625 C 3.832031 -21.914062 5.015625 -23.457031 6.484375 -24.6875 C 7.953125 -25.914062 9.632812 -26.832031 11.53125 -27.4375 C 13.4375 -28.050781 15.390625 -28.359375 17.390625 -28.359375 C 20.265625 -28.359375 22.546875 -27.894531 24.234375 -26.96875 C 25.921875 -26.039062 26.765625 -24.832031 26.765625 -23.34375 C 26.765625 -22.5625 26.566406 -21.878906 26.171875 -21.296875 C 25.773438 -20.722656 25.320312 -20.269531 24.8125 -19.9375 C 24.050781 -20.394531 23.097656 -20.84375 21.953125 -21.28125 C 20.816406 -21.71875 19.535156 -21.9375 18.109375 -21.9375 C 15.566406 -21.9375 13.539062 -21.207031 12.03125 -19.75 C 10.53125 -18.289062 9.78125 -16.273438 9.78125 -13.703125 C 9.78125 -12.304688 9.984375 -11.097656 10.390625 -10.078125 C 10.804688 -9.066406 11.363281 -8.234375 12.0625 -7.578125 C 12.757812 -6.921875 13.5625 -6.429688 14.46875 -6.109375 C 15.382812 -5.796875 16.359375 -5.640625 17.390625 -5.640625 C 18.054688 -5.640625 18.644531 -5.703125 19.15625 -5.828125 C 19.675781 -5.953125 20.070312 -6.085938 20.34375 -6.234375 L 20.34375 -10.515625 L 15.46875 -10.515625 C 15.289062 -10.847656 15.117188 -11.285156 14.953125 -11.828125 C 14.785156 -12.378906 14.703125 -12.957031 14.703125 -13.5625 C 14.703125 -14.65625 14.953125 -15.441406 15.453125 -15.921875 C 15.953125 -16.410156 16.597656 -16.65625 17.390625 -16.65625 L 25.078125 -16.65625 C 25.984375 -16.65625 26.6875 -16.40625 27.1875 -15.90625 C 27.695312 -15.40625 27.953125 -14.703125 27.953125 -13.796875 Z M 27.953125 -4.5 "/></g></g></g><g fill="#ffffff" fill-opacity="1"><g transform="translate(207.23646, 306.119569)"><g/></g></g><g fill="#ffffff" fill-opacity="1"><g transform="translate(213.608141, 306.119569)"><g><path d="M 15.015625 0.734375 C 14.503906 0.734375 13.914062 0.71875 13.25 0.6875 C 12.582031 0.65625 11.890625 0.59375 11.171875 0.5 C 10.460938 0.40625 9.75 0.289062 9.03125 0.15625 C 8.320312 0.0195312 7.664062 -0.164062 7.0625 -0.40625 C 5.382812 -1.039062 4.546875 -2.148438 4.546875 -3.734375 L 4.546875 -10.734375 L 1.5 -10.734375 C 1.320312 -11.078125 1.140625 -11.507812 0.953125 -12.03125 C 0.773438 -12.5625 0.6875 -13.117188 0.6875 -13.703125 C 0.6875 -14.859375 0.9375 -15.675781 1.4375 -16.15625 C 1.9375 -16.644531 2.582031 -16.890625 3.375 -16.890625 L 4.546875 -16.890625 L 4.546875 -24.984375 C 4.546875 -25.617188 4.71875 -26.109375 5.0625 -26.453125 C 5.414062 -26.804688 5.898438 -27.09375 6.515625 -27.3125 C 7.816406 -27.738281 9.191406 -28.019531 10.640625 -28.15625 C 12.097656 -28.289062 13.40625 -28.359375 14.5625 -28.359375 C 16.925781 -28.359375 19.070312 -28.066406 21 -27.484375 C 22.925781 -26.910156 24.578125 -26.023438 25.953125 -24.828125 C 27.335938 -23.628906 28.410156 -22.117188 29.171875 -20.296875 C 29.929688 -18.472656 30.3125 -16.320312 30.3125 -13.84375 C 30.3125 -11.414062 29.945312 -9.296875 29.21875 -7.484375 C 28.488281 -5.679688 27.445312 -4.164062 26.09375 -2.9375 C 24.75 -1.707031 23.132812 -0.785156 21.25 -0.171875 C 19.375 0.429688 17.296875 0.734375 15.015625 0.734375 Z M 12.46875 -5.921875 C 12.800781 -5.859375 13.207031 -5.800781 13.6875 -5.75 C 14.175781 -5.707031 14.632812 -5.6875 15.0625 -5.6875 C 16.09375 -5.6875 17.039062 -5.835938 17.90625 -6.140625 C 18.769531 -6.441406 19.515625 -6.910156 20.140625 -7.546875 C 20.765625 -8.191406 21.25 -9.019531 21.59375 -10.03125 C 21.945312 -11.050781 22.125 -12.273438 22.125 -13.703125 C 22.125 -16.429688 21.484375 -18.484375 20.203125 -19.859375 C 18.929688 -21.242188 17.234375 -21.9375 15.109375 -21.9375 C 14.679688 -21.9375 14.25 -21.921875 13.8125 -21.890625 C 13.375 -21.859375 12.925781 -21.8125 12.46875 -21.75 L 12.46875 -16.890625 L 16.484375 -16.890625 C 16.722656 -16.554688 16.914062 -16.125 17.0625 -15.59375 C 17.21875 -15.0625 17.296875 -14.503906 17.296875 -13.921875 C 17.296875 -12.773438 17.050781 -11.957031 16.5625 -11.46875 C 16.082031 -10.976562 15.429688 -10.734375 14.609375 -10.734375 L 12.46875 -10.734375 Z M 12.46875 -5.921875 "/></g></g></g><g fill="#ffffff" fill-opacity="1"><g transform="translate(242.783335, 306.119569)"><g><path d="M 15.65625 -46.375 C 15.894531 -46.4375 16.132812 -46.484375 16.375 -46.515625 C 16.625 -46.546875 16.867188 -46.5625 17.109375 -46.5625 C 17.992188 -46.5625 18.742188 -46.34375 19.359375 -45.90625 C 19.984375 -45.46875 20.296875 -44.757812 20.296875 -43.78125 C 20.296875 -43.269531 20.179688 -42.773438 19.953125 -42.296875 C 19.734375 -41.828125 19.316406 -41.351562 18.703125 -40.875 L 15.203125 -38.046875 C 14.804688 -38.078125 14.398438 -38.160156 13.984375 -38.296875 C 13.578125 -38.429688 13.210938 -38.617188 12.890625 -38.859375 C 12.578125 -39.109375 12.3125 -39.398438 12.09375 -39.734375 C 11.882812 -40.066406 11.78125 -40.429688 11.78125 -40.828125 C 11.78125 -41.429688 11.976562 -41.945312 12.375 -42.375 Z M 8.828125 -26.765625 C 9.347656 -27.066406 10.128906 -27.351562 11.171875 -27.625 C 12.222656 -27.894531 13.28125 -28.03125 14.34375 -28.03125 C 15.851562 -28.03125 17.191406 -27.8125 18.359375 -27.375 C 19.535156 -26.9375 20.289062 -26.25 20.625 -25.3125 C 21.164062 -23.726562 21.753906 -21.890625 22.390625 -19.796875 C 23.023438 -17.703125 23.660156 -15.539062 24.296875 -13.3125 C 24.941406 -11.082031 25.566406 -8.878906 26.171875 -6.703125 C 26.773438 -4.535156 27.304688 -2.617188 27.765625 -0.953125 C 27.398438 -0.523438 26.851562 -0.1875 26.125 0.0625 C 25.394531 0.320312 24.53125 0.453125 23.53125 0.453125 C 22.800781 0.453125 22.1875 0.390625 21.6875 0.265625 C 21.1875 0.148438 20.773438 -0.0234375 20.453125 -0.265625 C 20.140625 -0.515625 19.882812 -0.835938 19.6875 -1.234375 C 19.488281 -1.628906 19.3125 -2.082031 19.15625 -2.59375 L 18.34375 -5.734375 L 10.109375 -5.734375 C 9.859375 -4.828125 9.613281 -3.882812 9.375 -2.90625 C 9.132812 -1.9375 8.890625 -1 8.640625 -0.09375 C 8.222656 0.0625 7.773438 0.191406 7.296875 0.296875 C 6.828125 0.398438 6.257812 0.453125 5.59375 0.453125 C 4.050781 0.453125 2.90625 0.1875 2.15625 -0.34375 C 1.414062 -0.875 1.046875 -1.609375 1.046875 -2.546875 C 1.046875 -2.972656 1.101562 -3.394531 1.21875 -3.8125 C 1.34375 -4.238281 1.484375 -4.742188 1.640625 -5.328125 C 1.847656 -6.140625 2.140625 -7.15625 2.515625 -8.375 C 2.898438 -9.59375 3.316406 -10.90625 3.765625 -12.3125 C 4.222656 -13.71875 4.710938 -15.164062 5.234375 -16.65625 C 5.753906 -18.144531 6.238281 -19.546875 6.6875 -20.859375 C 7.144531 -22.179688 7.5625 -23.359375 7.9375 -24.390625 C 8.320312 -25.421875 8.617188 -26.210938 8.828125 -26.765625 Z M 14.296875 -20.890625 C 13.867188 -19.617188 13.390625 -18.203125 12.859375 -16.640625 C 12.328125 -15.078125 11.847656 -13.488281 11.421875 -11.875 L 17.0625 -11.875 C 16.644531 -13.519531 16.210938 -15.125 15.765625 -16.6875 C 15.328125 -18.25 14.925781 -19.648438 14.5625 -20.890625 Z M 14.390625 -30.078125 C 11.835938 -30.078125 9.878906 -30.539062 8.515625 -31.46875 C 7.148438 -32.394531 6.46875 -33.539062 6.46875 -34.90625 C 6.46875 -35.695312 6.757812 -36.441406 7.34375 -37.140625 C 7.9375 -37.835938 8.859375 -38.1875 10.109375 -38.1875 C 10.253906 -38.1875 10.390625 -38.1875 10.515625 -38.1875 C 10.640625 -38.1875 10.773438 -38.171875 10.921875 -38.140625 C 11.078125 -37.472656 11.457031 -36.910156 12.0625 -36.453125 C 12.664062 -36.003906 13.441406 -35.78125 14.390625 -35.78125 C 15.328125 -35.78125 16.085938 -36.003906 16.671875 -36.453125 C 17.265625 -36.910156 17.65625 -37.472656 17.84375 -38.140625 C 17.988281 -38.171875 18.125 -38.1875 18.25 -38.1875 C 18.375 -38.1875 18.507812 -38.1875 18.65625 -38.1875 C 19.90625 -38.1875 20.820312 -37.835938 21.40625 -37.140625 C 22 -36.441406 22.296875 -35.695312 22.296875 -34.90625 C 22.296875 -33.539062 21.613281 -32.394531 20.25 -31.46875 C 18.882812 -30.539062 16.929688 -30.078125 14.390625 -30.078125 Z M 14.390625 -30.078125 "/></g></g></g><g fill="#ffffff" fill-opacity="1"><g transform="translate(268.590334, 306.119569)"><g><path d="M 1.6875 -21.203125 C 1.46875 -21.535156 1.265625 -21.988281 1.078125 -22.5625 C 0.898438 -23.144531 0.8125 -23.753906 0.8125 -24.390625 C 0.8125 -25.578125 1.078125 -26.425781 1.609375 -26.9375 C 2.140625 -27.457031 2.832031 -27.71875 3.6875 -27.71875 L 23.53125 -27.71875 C 23.738281 -27.382812 23.929688 -26.925781 24.109375 -26.34375 C 24.296875 -25.769531 24.390625 -25.164062 24.390625 -24.53125 C 24.390625 -23.34375 24.125 -22.488281 23.59375 -21.96875 C 23.0625 -21.457031 22.375 -21.203125 21.53125 -21.203125 L 16.484375 -21.203125 L 16.484375 -0.1875 C 16.140625 -0.09375 15.613281 0 14.90625 0.09375 C 14.195312 0.1875 13.492188 0.234375 12.796875 0.234375 C 12.097656 0.234375 11.484375 0.175781 10.953125 0.0625 C 10.421875 -0.0390625 9.972656 -0.226562 9.609375 -0.5 C 9.242188 -0.769531 8.96875 -1.144531 8.78125 -1.625 C 8.601562 -2.113281 8.515625 -2.753906 8.515625 -3.546875 L 8.515625 -21.203125 Z M 1.6875 -21.203125 "/></g></g></g><g fill="#ffffff" fill-opacity="1"><g transform="translate(291.160469, 306.119569)"><g/></g></g><g fill="#ffffff" fill-opacity="1"><g transform="translate(103.761831, 346.357744)"><g><path d="M 0.515625 0 C 0.421875 0 0.34375 -0.03125 0.28125 -0.09375 C 0.21875 -0.164062 0.1875 -0.242188 0.1875 -0.328125 C 0.1875 -0.378906 0.191406 -0.425781 0.203125 -0.46875 L 3.90625 -10.46875 C 3.9375 -10.582031 4 -10.679688 4.09375 -10.765625 C 4.1875 -10.847656 4.316406 -10.890625 4.484375 -10.890625 L 6.46875 -10.890625 C 6.632812 -10.890625 6.765625 -10.847656 6.859375 -10.765625 C 6.953125 -10.679688 7.019531 -10.582031 7.0625 -10.46875 L 10.75 -0.46875 C 10.769531 -0.425781 10.78125 -0.378906 10.78125 -0.328125 C 10.78125 -0.242188 10.742188 -0.164062 10.671875 -0.09375 C 10.609375 -0.03125 10.53125 0 10.4375 0 L 8.8125 0 C 8.664062 0 8.554688 -0.0351562 8.484375 -0.109375 C 8.410156 -0.179688 8.363281 -0.25 8.34375 -0.3125 L 7.671875 -2.046875 L 3.28125 -2.046875 L 2.625 -0.3125 C 2.59375 -0.25 2.539062 -0.179688 2.46875 -0.109375 C 2.40625 -0.0351562 2.296875 0 2.140625 0 Z M 3.875 -4.0625 L 7.078125 -4.0625 L 5.484375 -8.53125 Z M 3.875 -4.0625 "/></g></g></g><g fill="#ffffff" fill-opacity="1"><g transform="translate(121.725123, 346.357744)"><g><path d="M 1.53125 0 C 1.425781 0 1.335938 -0.0351562 1.265625 -0.109375 C 1.191406 -0.179688 1.15625 -0.273438 1.15625 -0.390625 L 1.15625 -10.5 C 1.15625 -10.613281 1.191406 -10.707031 1.265625 -10.78125 C 1.335938 -10.851562 1.425781 -10.890625 1.53125 -10.890625 L 3.3125 -10.890625 C 3.414062 -10.890625 3.503906 -10.851562 3.578125 -10.78125 C 3.648438 -10.707031 3.6875 -10.613281 3.6875 -10.5 L 3.6875 -0.390625 C 3.6875 -0.273438 3.648438 -0.179688 3.578125 -0.109375 C 3.503906 -0.0351562 3.414062 0 3.3125 0 Z M 1.53125 0 "/></g></g></g><g fill="#ffffff" fill-opacity="1"><g transform="translate(133.572267, 346.357744)"><g/></g></g><g fill="#ffffff" fill-opacity="1"><g transform="translate(144.018766, 346.357744)"><g><path d="M 1.53125 0 C 1.425781 0 1.335938 -0.0351562 1.265625 -0.109375 C 1.191406 -0.179688 1.15625 -0.273438 1.15625 -0.390625 L 1.15625 -10.5 C 1.15625 -10.613281 1.191406 -10.707031 1.265625 -10.78125 C 1.335938 -10.851562 1.425781 -10.890625 1.53125 -10.890625 L 8.59375 -10.890625 C 8.707031 -10.890625 8.800781 -10.851562 8.875 -10.78125 C 8.945312 -10.707031 8.984375 -10.613281 8.984375 -10.5 L 8.984375 -9.265625 C 8.984375 -9.148438 8.945312 -9.054688 8.875 -8.984375 C 8.800781 -8.910156 8.707031 -8.875 8.59375 -8.875 L 3.546875 -8.875 L 3.546875 -6.4375 L 8.25 -6.4375 C 8.363281 -6.4375 8.457031 -6.398438 8.53125 -6.328125 C 8.601562 -6.253906 8.640625 -6.160156 8.640625 -6.046875 L 8.640625 -4.90625 C 8.640625 -4.800781 8.601562 -4.707031 8.53125 -4.625 C 8.457031 -4.550781 8.363281 -4.515625 8.25 -4.515625 L 3.546875 -4.515625 L 3.546875 -2.015625 L 8.71875 -2.015625 C 8.832031 -2.015625 8.925781 -1.976562 9 -1.90625 C 9.070312 -1.84375 9.109375 -1.753906 9.109375 -1.640625 L 9.109375 -0.390625 C 9.109375 -0.273438 9.070312 -0.179688 9 -0.109375 C 8.925781 -0.0351562 8.832031 0 8.71875 0 Z M 1.53125 0 "/></g></g></g><g fill="#ffffff" fill-opacity="1"><g transform="translate(160.84598, 346.357744)"><g><path d="M 1.53125 0 C 1.425781 0 1.335938 -0.0351562 1.265625 -0.109375 C 1.191406 -0.179688 1.15625 -0.273438 1.15625 -0.390625 L 1.15625 -10.5 C 1.15625 -10.613281 1.191406 -10.707031 1.265625 -10.78125 C 1.335938 -10.851562 1.425781 -10.890625 1.53125 -10.890625 L 2.953125 -10.890625 C 3.109375 -10.890625 3.222656 -10.851562 3.296875 -10.78125 C 3.367188 -10.707031 3.414062 -10.648438 3.4375 -10.609375 L 7.578125 -4.140625 L 7.578125 -10.5 C 7.578125 -10.613281 7.613281 -10.707031 7.6875 -10.78125 C 7.757812 -10.851562 7.851562 -10.890625 7.96875 -10.890625 L 9.5625 -10.890625 C 9.675781 -10.890625 9.765625 -10.851562 9.828125 -10.78125 C 9.898438 -10.707031 9.9375 -10.613281 9.9375 -10.5 L 9.9375 -0.390625 C 9.9375 -0.285156 9.898438 -0.191406 9.828125 -0.109375 C 9.765625 -0.0351562 9.675781 0 9.5625 0 L 8.125 0 C 7.96875 0 7.851562 -0.0351562 7.78125 -0.109375 C 7.707031 -0.191406 7.660156 -0.25 7.640625 -0.28125 L 3.515625 -6.546875 L 3.515625 -0.390625 C 3.515625 -0.273438 3.476562 -0.179688 3.40625 -0.109375 C 3.332031 -0.0351562 3.238281 0 3.125 0 Z M 1.53125 0 "/></g></g></g><g fill="#ffffff" fill-opacity="1"><g transform="translate(178.949338, 346.357744)"><g><path d="M 5.53125 0.15625 C 4.550781 0.15625 3.710938 -0.00390625 3.015625 -0.328125 C 2.328125 -0.660156 1.796875 -1.140625 1.421875 -1.765625 C 1.046875 -2.390625 0.84375 -3.148438 0.8125 -4.046875 C 0.800781 -4.492188 0.796875 -4.96875 0.796875 -5.46875 C 0.796875 -5.976562 0.800781 -6.460938 0.8125 -6.921875 C 0.84375 -7.796875 1.046875 -8.535156 1.421875 -9.140625 C 1.796875 -9.753906 2.332031 -10.222656 3.03125 -10.546875 C 3.738281 -10.878906 4.570312 -11.046875 5.53125 -11.046875 C 6.289062 -11.046875 6.960938 -10.945312 7.546875 -10.75 C 8.128906 -10.550781 8.617188 -10.296875 9.015625 -9.984375 C 9.421875 -9.671875 9.722656 -9.328125 9.921875 -8.953125 C 10.117188 -8.578125 10.222656 -8.210938 10.234375 -7.859375 C 10.234375 -7.765625 10.203125 -7.6875 10.140625 -7.625 C 10.078125 -7.5625 9.992188 -7.53125 9.890625 -7.53125 L 7.96875 -7.53125 C 7.863281 -7.53125 7.78125 -7.550781 7.71875 -7.59375 C 7.664062 -7.632812 7.617188 -7.695312 7.578125 -7.78125 C 7.503906 -7.957031 7.382812 -8.144531 7.21875 -8.34375 C 7.0625 -8.539062 6.847656 -8.703125 6.578125 -8.828125 C 6.304688 -8.960938 5.957031 -9.03125 5.53125 -9.03125 C 4.875 -9.03125 4.351562 -8.859375 3.96875 -8.515625 C 3.59375 -8.171875 3.390625 -7.613281 3.359375 -6.84375 C 3.328125 -5.957031 3.328125 -5.050781 3.359375 -4.125 C 3.390625 -3.320312 3.601562 -2.742188 4 -2.390625 C 4.394531 -2.046875 4.914062 -1.875 5.5625 -1.875 C 5.976562 -1.875 6.351562 -1.945312 6.6875 -2.09375 C 7.03125 -2.238281 7.300781 -2.46875 7.5 -2.78125 C 7.695312 -3.101562 7.796875 -3.515625 7.796875 -4.015625 L 7.796875 -4.40625 L 6.09375 -4.40625 C 5.988281 -4.40625 5.898438 -4.441406 5.828125 -4.515625 C 5.765625 -4.597656 5.734375 -4.691406 5.734375 -4.796875 L 5.734375 -5.796875 C 5.734375 -5.898438 5.765625 -5.988281 5.828125 -6.0625 C 5.898438 -6.132812 5.988281 -6.171875 6.09375 -6.171875 L 9.921875 -6.171875 C 10.035156 -6.171875 10.128906 -6.132812 10.203125 -6.0625 C 10.273438 -5.988281 10.3125 -5.898438 10.3125 -5.796875 L 10.3125 -4.09375 C 10.3125 -3.195312 10.113281 -2.429688 9.71875 -1.796875 C 9.332031 -1.171875 8.773438 -0.6875 8.046875 -0.34375 C 7.328125 -0.0078125 6.488281 0.15625 5.53125 0.15625 Z M 5.53125 0.15625 "/></g></g></g><g fill="#ffffff" fill-opacity="1"><g transform="translate(197.006008, 346.357744)"><g><path d="M 1.53125 0 C 1.425781 0 1.335938 -0.0351562 1.265625 -0.109375 C 1.191406 -0.179688 1.15625 -0.273438 1.15625 -0.390625 L 1.15625 -10.5 C 1.15625 -10.613281 1.191406 -10.707031 1.265625 -10.78125 C 1.335938 -10.851562 1.425781 -10.890625 1.53125 -10.890625 L 3.3125 -10.890625 C 3.414062 -10.890625 3.503906 -10.851562 3.578125 -10.78125 C 3.648438 -10.707031 3.6875 -10.613281 3.6875 -10.5 L 3.6875 -0.390625 C 3.6875 -0.273438 3.648438 -0.179688 3.578125 -0.109375 C 3.503906 -0.0351562 3.414062 0 3.3125 0 Z M 1.53125 0 "/></g></g></g><g fill="#ffffff" fill-opacity="1"><g transform="translate(208.853153, 346.357744)"><g><path d="M 1.53125 0 C 1.425781 0 1.335938 -0.0351562 1.265625 -0.109375 C 1.191406 -0.179688 1.15625 -0.273438 1.15625 -0.390625 L 1.15625 -10.5 C 1.15625 -10.613281 1.191406 -10.707031 1.265625 -10.78125 C 1.335938 -10.851562 1.425781 -10.890625 1.53125 -10.890625 L 2.953125 -10.890625 C 3.109375 -10.890625 3.222656 -10.851562 3.296875 -10.78125 C 3.367188 -10.707031 3.414062 -10.648438 3.4375 -10.609375 L 7.578125 -4.140625 L 7.578125 -10.5 C 7.578125 -10.613281 7.613281 -10.707031 7.6875 -10.78125 C 7.757812 -10.851562 7.851562 -10.890625 7.96875 -10.890625 L 9.5625 -10.890625 C 9.675781 -10.890625 9.765625 -10.851562 9.828125 -10.78125 C 9.898438 -10.707031 9.9375 -10.613281 9.9375 -10.5 L 9.9375 -0.390625 C 9.9375 -0.285156 9.898438 -0.191406 9.828125 -0.109375 C 9.765625 -0.0351562 9.675781 0 9.5625 0 L 8.125 0 C 7.96875 0 7.851562 -0.0351562 7.78125 -0.109375 C 7.707031 -0.191406 7.660156 -0.25 7.640625 -0.28125 L 3.515625 -6.546875 L 3.515625 -0.390625 C 3.515625 -0.273438 3.476562 -0.179688 3.40625 -0.109375 C 3.332031 -0.0351562 3.238281 0 3.125 0 Z M 1.53125 0 "/></g></g></g><g fill="#ffffff" fill-opacity="1"><g transform="translate(226.956506, 346.357744)"><g><path d="M 1.53125 0 C 1.425781 0 1.335938 -0.0351562 1.265625 -0.109375 C 1.191406 -0.179688 1.15625 -0.273438 1.15625 -0.390625 L 1.15625 -10.5 C 1.15625 -10.613281 1.191406 -10.707031 1.265625 -10.78125 C 1.335938 -10.851562 1.425781 -10.890625 1.53125 -10.890625 L 8.59375 -10.890625 C 8.707031 -10.890625 8.800781 -10.851562 8.875 -10.78125 C 8.945312 -10.707031 8.984375 -10.613281 8.984375 -10.5 L 8.984375 -9.265625 C 8.984375 -9.148438 8.945312 -9.054688 8.875 -8.984375 C 8.800781 -8.910156 8.707031 -8.875 8.59375 -8.875 L 3.546875 -8.875 L 3.546875 -6.4375 L 8.25 -6.4375 C 8.363281 -6.4375 8.457031 -6.398438 8.53125 -6.328125 C 8.601562 -6.253906 8.640625 -6.160156 8.640625 -6.046875 L 8.640625 -4.90625 C 8.640625 -4.800781 8.601562 -4.707031 8.53125 -4.625 C 8.457031 -4.550781 8.363281 -4.515625 8.25 -4.515625 L 3.546875 -4.515625 L 3.546875 -2.015625 L 8.71875 -2.015625 C 8.832031 -2.015625 8.925781 -1.976562 9 -1.90625 C 9.070312 -1.84375 9.109375 -1.753906 9.109375 -1.640625 L 9.109375 -0.390625 C 9.109375 -0.273438 9.070312 -0.179688 9 -0.109375 C 8.925781 -0.0351562 8.832031 0 8.71875 0 Z M 1.53125 0 "/></g></g></g><g fill="#ffffff" fill-opacity="1"><g transform="translate(243.783713, 346.357744)"><g><path d="M 1.53125 0 C 1.425781 0 1.335938 -0.0351562 1.265625 -0.109375 C 1.191406 -0.179688 1.15625 -0.273438 1.15625 -0.390625 L 1.15625 -10.5 C 1.15625 -10.613281 1.191406 -10.707031 1.265625 -10.78125 C 1.335938 -10.851562 1.425781 -10.890625 1.53125 -10.890625 L 8.59375 -10.890625 C 8.707031 -10.890625 8.800781 -10.851562 8.875 -10.78125 C 8.945312 -10.707031 8.984375 -10.613281 8.984375 -10.5 L 8.984375 -9.265625 C 8.984375 -9.148438 8.945312 -9.054688 8.875 -8.984375 C 8.800781 -8.910156 8.707031 -8.875 8.59375 -8.875 L 3.546875 -8.875 L 3.546875 -6.4375 L 8.25 -6.4375 C 8.363281 -6.4375 8.457031 -6.398438 8.53125 -6.328125 C 8.601562 -6.253906 8.640625 -6.160156 8.640625 -6.046875 L 8.640625 -4.90625 C 8.640625 -4.800781 8.601562 -4.707031 8.53125 -4.625 C 8.457031 -4.550781 8.363281 -4.515625 8.25 -4.515625 L 3.546875 -4.515625 L 3.546875 -2.015625 L 8.71875 -2.015625 C 8.832031 -2.015625 8.925781 -1.976562 9 -1.90625 C 9.070312 -1.84375 9.109375 -1.753906 9.109375 -1.640625 L 9.109375 -0.390625 C 9.109375 -0.273438 9.070312 -0.179688 9 -0.109375 C 8.925781 -0.0351562 8.832031 0 8.71875 0 Z M 1.53125 0 "/></g></g></g><g fill="#ffffff" fill-opacity="1"><g transform="translate(260.61092, 346.357744)"><g><path d="M 1.53125 0 C 1.425781 0 1.335938 -0.0351562 1.265625 -0.109375 C 1.191406 -0.179688 1.15625 -0.273438 1.15625 -0.390625 L 1.15625 -10.5 C 1.15625 -10.613281 1.191406 -10.707031 1.265625 -10.78125 C 1.335938 -10.851562 1.425781 -10.890625 1.53125 -10.890625 L 5.671875 -10.890625 C 6.960938 -10.890625 7.976562 -10.59375 8.71875 -10 C 9.46875 -9.40625 9.84375 -8.546875 9.84375 -7.421875 C 9.84375 -6.660156 9.660156 -6.023438 9.296875 -5.515625 C 8.941406 -5.015625 8.457031 -4.640625 7.84375 -4.390625 L 10.046875 -0.5 C 10.078125 -0.4375 10.09375 -0.378906 10.09375 -0.328125 C 10.09375 -0.242188 10.054688 -0.164062 9.984375 -0.09375 C 9.921875 -0.03125 9.847656 0 9.765625 0 L 8.03125 0 C 7.84375 0 7.703125 -0.046875 7.609375 -0.140625 C 7.515625 -0.242188 7.445312 -0.335938 7.40625 -0.421875 L 5.515625 -3.984375 L 3.625 -3.984375 L 3.625 -0.390625 C 3.625 -0.273438 3.585938 -0.179688 3.515625 -0.109375 C 3.441406 -0.0351562 3.347656 0 3.234375 0 Z M 3.625 -5.953125 L 5.640625 -5.953125 C 6.191406 -5.953125 6.601562 -6.082031 6.875 -6.34375 C 7.15625 -6.601562 7.296875 -6.96875 7.296875 -7.4375 C 7.296875 -7.90625 7.160156 -8.273438 6.890625 -8.546875 C 6.617188 -8.816406 6.203125 -8.953125 5.640625 -8.953125 L 3.625 -8.953125 Z M 3.625 -5.953125 "/></g></g></g></svg>