<svg xmlns="http://www.w3.org/2000/svg" xmlns:xlink="http://www.w3.org/1999/xlink" width="500" zoomAndPan="magnify" viewBox="0 0 375 374.999991" height="500" preserveAspectRatio="xMidYMid meet" version="1.0"><defs><g/><clipPath id="bfe49f8807"><path d="M 58.121094 39 L 305 39 L 305 210.75 L 58.121094 210.75 Z M 58.121094 39 " clip-rule="nonzero"/></clipPath><clipPath id="fbca5b1b96"><path d="M 304 207 L 316.871094 207 L 316.871094 210.75 L 304 210.75 Z M 304 207 " clip-rule="nonzero"/></clipPath></defs><path fill="#8da2ab" d="M 167.164062 56.382812 C 172.632812 56.335938 178.003906 57.039062 183.277344 58.492188 C 183.574219 52.972656 180.382812 47.195312 175.253906 44.042969 C 171.652344 41.828125 164.179688 39.132812 153.5625 44.761719 C 159.222656 46.820312 163.933594 50.917969 167.164062 56.382812 Z M 167.164062 56.382812 " fill-opacity="1" fill-rule="nonzero"/><path fill="#8da2ab" d="M 175.921875 170.535156 L 175.625 170.535156 C 165.546875 170.535156 163.179688 187.402344 163.15625 187.585938 C 163.148438 187.71875 163.113281 187.847656 163.050781 187.964844 C 162.992188 188.085938 162.910156 188.1875 162.804688 188.269531 C 162.703125 188.355469 162.585938 188.417969 162.457031 188.453125 C 162.328125 188.488281 162.199219 188.5 162.066406 188.480469 C 161.933594 188.464844 161.8125 188.421875 161.695312 188.351562 C 161.582031 188.28125 161.484375 188.195312 161.40625 188.085938 C 161.332031 187.976562 161.277344 187.855469 161.25 187.726562 C 161.222656 187.597656 161.222656 187.464844 161.246094 187.335938 C 161.328125 186.722656 162.949219 175.210938 169.550781 170.535156 L 162.707031 170.535156 C 162.441406 170.539062 162.214844 170.445312 162.027344 170.257812 C 161.839844 170.070312 161.746094 169.84375 161.75 169.578125 L 161.75 155.796875 C 161.746094 155.53125 161.839844 155.304688 162.027344 155.117188 C 162.214844 154.929688 162.441406 154.832031 162.707031 154.832031 L 171.558594 154.832031 L 156.105469 147.359375 C 155.984375 147.308594 155.875 147.234375 155.78125 147.140625 C 155.691406 147.046875 155.621094 146.933594 155.574219 146.8125 C 155.527344 146.6875 155.503906 146.558594 155.511719 146.425781 C 155.515625 146.292969 155.546875 146.167969 155.605469 146.046875 C 155.664062 145.929688 155.742188 145.824219 155.84375 145.738281 C 155.945312 145.652344 156.058594 145.589844 156.183594 145.546875 C 156.308594 145.507812 156.441406 145.496094 156.570312 145.507812 C 156.703125 145.523438 156.828125 145.5625 156.945312 145.625 L 174.089844 153.933594 C 174.589844 154.171875 175.109375 154.363281 175.648438 154.507812 C 176.183594 154.648438 176.730469 154.742188 177.285156 154.785156 C 177.839844 154.824219 178.390625 154.816406 178.945312 154.757812 C 179.496094 154.695312 180.039062 154.585938 180.570312 154.425781 C 181.101562 154.265625 181.617188 154.054688 182.109375 153.800781 C 182.601562 153.546875 183.066406 153.246094 183.507812 152.90625 C 183.945312 152.5625 184.347656 152.183594 184.714844 151.765625 C 185.082031 151.351562 185.410156 150.902344 185.691406 150.425781 C 185.988281 149.929688 186.238281 149.410156 186.433594 148.867188 C 186.628906 148.324219 186.769531 147.765625 186.855469 147.195312 C 186.941406 146.621094 186.972656 146.046875 186.945312 145.46875 C 186.921875 144.894531 186.839844 144.324219 186.703125 143.761719 C 186.566406 143.199219 186.378906 142.65625 186.136719 142.132812 C 185.890625 141.609375 185.601562 141.113281 185.261719 140.644531 C 184.921875 140.175781 184.542969 139.746094 184.117188 139.351562 C 183.695312 138.957031 183.238281 138.609375 182.746094 138.304688 L 166.402344 128.050781 C 166.285156 127.988281 166.191406 127.902344 166.109375 127.796875 C 166.03125 127.691406 165.976562 127.578125 165.941406 127.449219 C 165.910156 127.320312 165.90625 127.195312 165.925781 127.0625 C 165.945312 126.933594 165.992188 126.8125 166.0625 126.703125 C 166.128906 126.589844 166.21875 126.496094 166.328125 126.421875 C 166.433594 126.347656 166.554688 126.296875 166.679688 126.269531 C 166.808594 126.242188 166.9375 126.242188 167.066406 126.269531 C 167.195312 126.292969 167.316406 126.34375 167.421875 126.417969 L 176.363281 132.03125 C 176.433594 132.019531 176.507812 132.019531 176.578125 132.03125 C 189.078125 133.269531 199.125 130.570312 205.640625 124.226562 C 207.980469 121.957031 209.785156 119.320312 211.050781 116.320312 C 209.898438 116.820312 208.695312 117.070312 207.4375 117.066406 C 206.269531 117.0625 205.136719 116.859375 204.039062 116.457031 C 202.9375 116.058594 201.941406 115.484375 201.042969 114.738281 C 200.835938 114.566406 200.722656 114.351562 200.699219 114.085938 C 200.675781 113.820312 200.746094 113.585938 200.917969 113.382812 C 201.089844 113.175781 201.308594 113.0625 201.570312 113.039062 C 201.835938 113.015625 202.070312 113.089844 202.273438 113.261719 C 205.148438 115.664062 209.90625 116.078125 212.882812 112.597656 C 214.417969 110.800781 214.09375 103.699219 213.519531 99.476562 C 211.199219 96.242188 209.828125 92.097656 208.386719 87.683594 C 206.078125 80.648438 203.457031 72.679688 196.226562 66.929688 C 186.46875 59.175781 172.535156 58.386719 168.195312 58.332031 C 169.816406 61.617188 170.898438 65.066406 171.433594 68.691406 C 171.472656 68.953125 171.414062 69.191406 171.257812 69.402344 C 171.097656 69.617188 170.890625 69.746094 170.628906 69.785156 C 170.367188 69.824219 170.128906 69.765625 169.914062 69.609375 C 169.699219 69.453125 169.574219 69.242188 169.535156 68.980469 C 167.773438 57.332031 160.636719 48.511719 150.921875 45.914062 C 143.96875 44.058594 136.546875 45.589844 130.03125 50.207031 C 123.511719 54.824219 118.589844 62.101562 116.316406 70.582031 C 114.042969 79.0625 114.667969 87.765625 118.046875 95.078125 C 121.425781 102.386719 127.070312 107.335938 134.023438 109.191406 C 137.292969 110.0625 140.589844 110.199219 143.921875 109.605469 C 144.183594 109.558594 144.421875 109.609375 144.640625 109.761719 C 144.859375 109.914062 144.992188 110.121094 145.035156 110.382812 C 145.082031 110.644531 145.027344 110.882812 144.875 111.101562 C 144.722656 111.320312 144.515625 111.449219 144.253906 111.496094 C 142.804688 111.753906 141.339844 111.882812 139.867188 111.886719 C 137.71875 111.882812 135.609375 111.605469 133.539062 111.054688 C 126.980469 109.304688 121.492188 104.980469 117.808594 98.746094 C 117.75 98.894531 117.652344 99.019531 117.523438 99.121094 C 117.417969 99.203125 106.449219 107.855469 97.484375 123.40625 C 89.21875 137.730469 80.996094 161.027344 88.738281 190.671875 C 92.175781 203.847656 103.089844 206.371094 116.996094 208.292969 L 149.253906 208.292969 C 156.699219 207.539062 164.085938 206.386719 171.40625 204.839844 C 180.078125 202.960938 183.113281 192.058594 182.265625 182.699219 C 181.609375 175.757812 178.953125 170.636719 175.921875 170.535156 Z M 175.921875 170.535156 " fill-opacity="1" fill-rule="nonzero"/><path fill="#8da2ab" d="M 86.421875 189.320312 C 86.054688 188.765625 85.589844 188.316406 85.027344 187.964844 C 84.460938 187.613281 83.847656 187.398438 83.191406 187.3125 C 82.480469 187.21875 81.78125 187.273438 81.097656 187.476562 C 80.410156 187.679688 79.796875 188.019531 79.253906 188.488281 C 77.003906 190.421875 76 194.449219 76.980469 197.648438 C 77.90625 200.675781 80.464844 202.96875 83.347656 203.347656 C 86.046875 203.699219 89.007812 202.484375 91.292969 200.078125 C 89.144531 197.4375 87.675781 194.464844 86.875 191.15625 C 86.714844 190.542969 86.570312 189.933594 86.421875 189.320312 Z M 86.421875 189.320312 " fill-opacity="1" fill-rule="nonzero"/><path fill="#ff8383" d="M 267.480469 153.902344 L 267.480469 147.917969 L 197.582031 147.917969 C 197.640625 148.328125 197.734375 148.730469 197.863281 149.125 C 197.992188 149.519531 198.15625 149.902344 198.355469 150.265625 C 198.554688 150.628906 198.785156 150.976562 199.042969 151.300781 C 199.304688 151.625 199.589844 151.921875 199.90625 152.195312 C 200.21875 152.464844 200.554688 152.710938 200.910156 152.921875 C 201.269531 153.132812 201.640625 153.3125 202.03125 153.457031 C 202.417969 153.605469 202.816406 153.714844 203.226562 153.789062 C 203.636719 153.863281 204.046875 153.898438 204.464844 153.902344 Z M 267.480469 153.902344 " fill-opacity="1" fill-rule="nonzero"/><path fill="#ff8383" d="M 269.40625 146.957031 L 269.40625 151.296875 L 294.648438 107.769531 C 294.929688 107.277344 295.167969 106.765625 295.355469 106.230469 C 295.542969 105.691406 295.675781 105.144531 295.761719 104.582031 C 295.84375 104.023438 295.871094 103.457031 295.847656 102.890625 C 295.824219 102.324219 295.746094 101.765625 295.617188 101.210938 C 295.484375 100.660156 295.304688 100.125 295.070312 99.605469 C 294.839844 99.089844 294.558594 98.597656 294.234375 98.132812 C 293.90625 97.667969 293.539062 97.238281 293.132812 96.84375 C 292.726562 96.449219 292.285156 96.09375 291.808594 95.78125 L 263.328125 146.003906 L 268.460938 146.003906 C 268.722656 146.011719 268.941406 146.105469 269.125 146.289062 C 269.308594 146.476562 269.402344 146.699219 269.40625 146.957031 Z M 269.40625 146.957031 " fill-opacity="1" fill-rule="nonzero"/><path fill="#a67c52" d="M 184.929688 170.53125 L 200.160156 170.53125 L 200.160156 208.292969 L 184.929688 208.292969 Z M 184.929688 170.53125 " fill-opacity="1" fill-rule="nonzero"/><path fill="#a67c52" d="M 163.695312 168.605469 L 302.324219 168.605469 L 302.324219 156.757812 L 163.695312 156.757812 Z M 163.695312 168.605469 " fill-opacity="1" fill-rule="nonzero"/><path fill="#a67c52" d="M 259.683594 170.53125 L 274.917969 170.53125 L 274.917969 208.292969 L 259.683594 208.292969 Z M 259.683594 170.53125 " fill-opacity="1" fill-rule="nonzero"/><path fill="#ffffff" d="M 210.632812 94.082031 C 209.726562 94.402344 208.84375 94.785156 207.984375 95.226562 C 207.128906 95.667969 206.304688 96.167969 205.515625 96.722656 C 204.726562 97.277344 203.980469 97.882812 203.273438 98.539062 C 202.566406 99.195312 201.910156 99.898438 201.300781 100.644531 C 200.691406 101.390625 200.132812 102.175781 199.632812 103 C 199.128906 103.820312 198.683594 104.675781 198.300781 105.558594 C 197.914062 106.441406 197.589844 107.347656 197.328125 108.277344 C 197.066406 109.203125 196.871094 110.144531 196.738281 111.101562 C 196.300781 114.585938 196.832031 118.328125 198.941406 121.117188 C 201.050781 123.902344 204.953125 125.511719 208.242188 124.277344 C 212.160156 118.480469 216 112.007812 215.777344 105.011719 C 215.652344 101.039062 213.339844 97.007812 210.632812 94.082031 Z M 210.632812 94.082031 " fill-opacity="1" fill-rule="nonzero"/><path fill="#4e6b75" d="M 145.507812 59.054688 C 147.496094 60.636719 149.550781 62.34375 150.636719 64.648438 C 151.722656 66.949219 151.527344 70.085938 149.523438 71.640625 C 148.03125 72.785156 145.867188 72.886719 144.570312 74.246094 C 143.429688 75.441406 143.300781 77.277344 143.515625 78.921875 C 143.730469 80.566406 144.175781 82.199219 143.980469 83.839844 C 143.890625 84.488281 143.703125 85.109375 143.417969 85.699219 C 143.136719 86.292969 142.769531 86.824219 142.320312 87.304688 C 141.875 87.78125 141.363281 88.183594 140.789062 88.503906 C 140.21875 88.824219 139.613281 89.050781 138.96875 89.183594 C 137.515625 89.457031 135.753906 89.320312 134.867188 90.507812 C 133.894531 91.808594 134.78125 93.667969 135.890625 94.859375 C 136.632812 95.644531 137.457031 96.332031 138.363281 96.917969 C 139.269531 97.507812 140.230469 97.980469 141.25 98.339844 C 142.269531 98.699219 143.316406 98.933594 144.390625 99.042969 C 145.464844 99.152344 146.539062 99.136719 147.609375 98.992188 C 149.800781 98.675781 152.914062 97.742188 153.445312 95.417969 C 154.113281 92.503906 153.445312 88.621094 153.445312 85.617188 C 153.445312 83.84375 156.085938 82.863281 157.8125 82.59375 C 159.542969 82.328125 161.449219 82.351562 162.957031 81.425781 C 165.207031 80.042969 165.824219 76.90625 165.066406 74.371094 C 164.304688 71.835938 162.507812 69.78125 160.742188 67.816406 C 158.714844 65.558594 156.652344 63.296875 154.160156 61.574219 C 152.902344 60.679688 151.53125 60.015625 150.046875 59.585938 C 148.566406 59.152344 147.050781 58.976562 145.507812 59.054688 Z M 145.507812 59.054688 " fill-opacity="1" fill-rule="nonzero"/><path fill="#4e6b75" d="M 174.597656 203.601562 C 153.59375 205.804688 119.367188 207.652344 106.707031 192.851562 C 71.898438 152.117188 117.519531 99.121094 117.519531 99.121094 C 117.414062 99.203125 106.445312 107.855469 97.476562 123.40625 C 89.21875 137.730469 80.996094 161.027344 88.738281 190.671875 C 92.175781 203.847656 103.089844 206.371094 116.996094 208.292969 L 149.253906 208.292969 C 156.699219 207.539062 164.085938 206.386719 171.40625 204.839844 C 172.535156 204.589844 173.597656 204.179688 174.597656 203.601562 Z M 174.597656 203.601562 " fill-opacity="1" fill-rule="nonzero"/><path fill="#4e6b75" d="M 186.164062 149.835938 C 182.640625 152.546875 177.570312 152.25 173.441406 150.605469 C 169.3125 148.960938 165.746094 146.171875 161.839844 144.058594 C 160.492188 143.246094 159.035156 142.742188 157.472656 142.546875 C 155.921875 142.4375 154.242188 142.980469 153.351562 144.253906 C 151.976562 146.238281 152.945312 148.941406 152.691406 151.339844 C 152.269531 155.382812 147.566406 158.363281 143.726562 157.019531 C 147.8125 161.46875 150.855469 166.539062 152.855469 172.238281 C 156.949219 173.703125 160.839844 175.789062 164.933594 177.25 C 167.121094 174.828125 169.101562 172.664062 171.261719 170.242188 C 168.355469 170.519531 165.28125 169.777344 162.566406 168.707031 C 161.917969 164.5 162.199219 160.355469 163.414062 156.277344 L 163.785156 156.621094 C 168.410156 156.339844 172.820312 155.671875 177.445312 155.390625 C 179.226562 155.28125 181.046875 155.164062 182.683594 154.445312 C 184.316406 153.722656 185.988281 151.613281 186.164062 149.835938 Z M 186.164062 149.835938 " fill-opacity="1" fill-rule="nonzero"/><path fill="#afb9bc" d="M 113.167969 174.609375 C 113.167969 174.609375 115.730469 159.539062 130.121094 158.796875 C 146.046875 157.960938 143.050781 170.976562 149.273438 175.074219 C 153.574219 177.785156 158.109375 180.007812 162.886719 181.742188 L 164.378906 176.660156 L 152.640625 171.273438 C 152.640625 171.273438 148.261719 153.351562 132.734375 154.828125 C 117.207031 156.304688 110.652344 170.214844 113.167969 174.609375 Z M 113.167969 174.609375 " fill-opacity="1" fill-rule="nonzero"/><path fill="#afb9bc" d="M 208.402344 87.65625 C 206.09375 80.625 203.472656 72.652344 196.242188 66.902344 C 186.484375 59.148438 172.550781 58.359375 168.210938 58.308594 C 168.816406 59.535156 169.34375 60.800781 169.792969 62.097656 C 169.792969 62.097656 187.988281 63.75 195.851562 71.707031 C 203.714844 79.660156 210.746094 95.5625 210.746094 95.5625 L 210.839844 94.507812 C 209.945312 92.324219 209.183594 90.027344 208.402344 87.65625 Z M 208.402344 87.65625 " fill-opacity="1" fill-rule="nonzero"/><path fill="#afb9bc" d="M 153.410156 44.933594 C 159.511719 43.878906 166.066406 42.894531 171.667969 45.5625 C 172.882812 46.160156 174 46.90625 175.019531 47.796875 C 176.039062 48.691406 176.925781 49.699219 177.675781 50.828125 C 178.429688 51.953125 179.019531 53.15625 179.453125 54.441406 C 179.886719 55.722656 180.148438 57.039062 180.234375 58.390625 C 182.085938 58.507812 183.5625 58.859375 185.414062 58.976562 C 184.886719 51.902344 179.648438 45.0625 173.152344 42.210938 C 171.535156 41.527344 169.859375 41.070312 168.121094 40.839844 C 166.382812 40.609375 164.644531 40.613281 162.90625 40.855469 C 161.167969 41.09375 159.492188 41.5625 157.882812 42.253906 C 156.269531 42.945312 154.78125 43.839844 153.410156 44.933594 Z M 153.410156 44.933594 " fill-opacity="1" fill-rule="nonzero"/><path fill="#afb9bc" d="M 169.566406 68.953125 C 167.773438 57.332031 160.636719 48.511719 150.921875 45.914062 C 143.96875 44.058594 136.546875 45.589844 130.03125 50.207031 C 123.511719 54.824219 118.589844 62.101562 116.316406 70.582031 C 115.863281 72.28125 115.527344 74 115.304688 75.742188 L 115.414062 75.800781 C 115.414062 75.800781 122.886719 49.566406 143.105469 47.898438 C 160.941406 46.4375 169.566406 68.953125 169.566406 68.953125 Z M 169.566406 68.953125 " fill-opacity="1" fill-rule="nonzero"/><path fill="#c69c6d" d="M 163.835938 159.671875 L 302.324219 159.671875 L 302.324219 156.757812 L 163.804688 156.621094 Z M 163.835938 159.671875 " fill-opacity="1" fill-rule="nonzero"/><path fill="#754c24" d="M 163.804688 164.484375 L 302.324219 164.484375 L 302.324219 168.605469 L 163.695312 168.605469 Z M 163.804688 164.484375 " fill-opacity="1" fill-rule="nonzero"/><path fill="#754c24" d="M 184.003906 177.835938 L 200.878906 177.835938 L 200.160156 170.53125 L 184.929688 170.53125 Z M 184.003906 177.835938 " fill-opacity="1" fill-rule="nonzero"/><path fill="#754c24" d="M 259.683594 177.71875 L 274.59375 177.71875 L 274.917969 170.53125 L 259.683594 170.53125 Z M 259.683594 177.71875 " fill-opacity="1" fill-rule="nonzero"/><path fill="#754c24" d="M 263.714844 171.363281 L 263.714844 209.296875 L 259.683594 208.292969 L 259.683594 170.53125 Z M 263.714844 171.363281 " fill-opacity="1" fill-rule="nonzero"/><path fill="#754c24" d="M 189.195312 170.441406 L 189.195312 209.203125 L 184.929688 208.292969 L 183.964844 168.605469 Z M 189.195312 170.441406 " fill-opacity="1" fill-rule="nonzero"/><path fill="#ffcaca" d="M 198.078125 149.683594 L 267.480469 149.683594 L 267.480469 147.917969 L 197.582031 147.917969 Z M 198.078125 149.683594 " fill-opacity="1" fill-rule="nonzero"/><path fill="#db5656" d="M 268.441406 145.996094 L 295.496094 100.753906 C 295.828125 101.324219 296.078125 101.925781 296.25 102.558594 C 296.417969 103.195312 296.503906 103.839844 296.503906 104.5 C 296.503906 105.15625 296.417969 105.804688 296.25 106.4375 C 296.078125 107.074219 295.828125 107.675781 295.496094 108.242188 C 293.195312 112.207031 269.890625 152.117188 269.890625 152.117188 Z M 268.441406 145.996094 " fill-opacity="1" fill-rule="nonzero"/><path fill="#ffcaca" d="M 264.953125 146.570312 L 293.523438 97.164062 L 291.808594 95.773438 L 263.308594 145.996094 Z M 264.953125 146.570312 " fill-opacity="1" fill-rule="nonzero"/><path fill="#db5656" d="M 199.089844 151.734375 L 267.300781 151.734375 L 267.480469 153.902344 L 201.570312 153.902344 Z M 199.089844 151.734375 " fill-opacity="1" fill-rule="nonzero"/><g clip-path="url(#bfe49f8807)"><path fill="#000000" d="M 304.730469 155.796875 C 304.730469 155.605469 304.695312 155.421875 304.621094 155.246094 C 304.550781 155.070312 304.445312 154.914062 304.3125 154.777344 C 304.175781 154.640625 304.019531 154.539062 303.84375 154.464844 C 303.667969 154.390625 303.484375 154.355469 303.292969 154.355469 L 270.40625 154.355469 L 296.730469 108.964844 C 297.117188 108.300781 297.433594 107.601562 297.679688 106.871094 C 297.925781 106.140625 298.09375 105.394531 298.1875 104.628906 C 298.28125 103.863281 298.292969 103.097656 298.230469 102.332031 C 298.167969 101.5625 298.03125 100.808594 297.816406 100.070312 C 297.597656 99.332031 297.3125 98.621094 296.949219 97.941406 C 296.589844 97.257812 296.164062 96.621094 295.675781 96.027344 C 295.1875 95.433594 294.640625 94.894531 294.042969 94.410156 C 293.441406 93.925781 292.800781 93.507812 292.113281 93.152344 C 291.949219 93.066406 291.773438 93.015625 291.585938 93 C 291.402344 92.980469 291.21875 93 291.039062 93.050781 C 290.863281 93.105469 290.699219 93.1875 290.554688 93.304688 C 290.40625 93.421875 290.289062 93.558594 290.195312 93.722656 L 260.808594 145.5 L 196.554688 145.5 C 196.359375 145.496094 196.175781 145.535156 196 145.605469 C 195.820312 145.679688 195.664062 145.785156 195.53125 145.921875 C 195.394531 146.054688 195.289062 146.210938 195.214844 146.390625 C 195.144531 146.566406 195.105469 146.75 195.109375 146.941406 C 195.109375 148.390625 195.433594 149.761719 196.074219 151.058594 C 196.71875 152.355469 197.613281 153.441406 198.761719 154.320312 L 185.492188 154.320312 C 186.394531 153.535156 187.152344 152.628906 187.761719 151.597656 C 188.136719 150.96875 188.449219 150.308594 188.695312 149.617188 C 188.945312 148.929688 189.121094 148.222656 189.230469 147.496094 C 189.339844 146.773438 189.378906 146.042969 189.347656 145.3125 C 189.316406 144.578125 189.210938 143.855469 189.039062 143.144531 C 188.867188 142.433594 188.625 141.742188 188.316406 141.078125 C 188.011719 140.414062 187.640625 139.785156 187.210938 139.191406 C 186.78125 138.597656 186.296875 138.050781 185.761719 137.550781 C 185.222656 137.050781 184.644531 136.609375 184.019531 136.222656 L 181.574219 134.683594 L 182.375 134.683594 C 195.371094 134.683594 203.050781 130.074219 207.332031 125.894531 C 212.71875 120.652344 214.046875 115.015625 214.101562 114.78125 C 214.101562 114.769531 214.101562 114.761719 214.101562 114.753906 C 214.3125 114.546875 214.523438 114.328125 214.722656 114.089844 C 215.554688 113.113281 216.015625 111.492188 216.242188 109.652344 C 218.191406 107.890625 219.078125 104.480469 218.265625 100.910156 C 217.527344 97.675781 215.585938 95.167969 213.351562 94.171875 C 212.359375 91.945312 211.535156 89.425781 210.683594 86.859375 C 208.265625 79.511719 205.53125 71.179688 197.734375 64.972656 C 194.089844 62.152344 190.066406 60.042969 185.671875 58.648438 C 186.066406 52.144531 182.507812 45.597656 176.515625 41.925781 C 169.363281 37.574219 160.070312 38.125 150.9375 43.449219 C 143.457031 41.660156 135.5625 43.332031 128.636719 48.246094 C 121.605469 53.226562 116.40625 60.9375 113.996094 69.960938 C 111.585938 78.984375 112.25 88.261719 115.867188 96.082031 C 116.015625 96.410156 116.179688 96.726562 116.339844 97.046875 C 116.234375 97.09375 116.136719 97.152344 116.042969 97.222656 C 115.578125 97.582031 104.640625 106.183594 95.429688 122.144531 C 87.488281 135.890625 79.609375 157.679688 85.046875 185.308594 C 84.550781 185.125 84.042969 185 83.515625 184.929688 C 82.464844 184.789062 81.429688 184.871094 80.414062 185.171875 C 79.398438 185.472656 78.488281 185.972656 77.683594 186.664062 C 74.667969 189.257812 73.402344 194.171875 74.675781 198.351562 C 75.875 202.265625 79.234375 205.230469 83.03125 205.730469 C 83.445312 205.785156 83.859375 205.816406 84.277344 205.8125 C 85.84375 205.769531 87.347656 205.429688 88.785156 204.804688 C 90.226562 204.175781 91.492188 203.300781 92.59375 202.183594 C 95.375 204.792969 98.800781 206.546875 102.6875 207.8125 L 59.726562 207.8125 C 59.527344 207.800781 59.332031 207.828125 59.144531 207.894531 C 58.957031 207.964844 58.792969 208.066406 58.648438 208.203125 C 58.503906 208.339844 58.390625 208.496094 58.3125 208.679688 C 58.234375 208.863281 58.191406 209.054688 58.191406 209.253906 C 58.191406 209.453125 58.234375 209.644531 58.3125 209.828125 C 58.390625 210.007812 58.503906 210.167969 58.648438 210.304688 C 58.792969 210.441406 58.957031 210.542969 59.144531 210.613281 C 59.332031 210.679688 59.527344 210.707031 59.726562 210.695312 L 296.535156 210.695312 C 296.734375 210.707031 296.925781 210.679688 297.113281 210.613281 C 297.300781 210.542969 297.46875 210.441406 297.613281 210.304688 C 297.757812 210.167969 297.871094 210.007812 297.949219 209.828125 C 298.027344 209.644531 298.066406 209.453125 298.066406 209.253906 C 298.066406 209.054688 298.027344 208.863281 297.949219 208.679688 C 297.871094 208.496094 297.757812 208.339844 297.613281 208.203125 C 297.46875 208.066406 297.300781 207.964844 297.113281 207.894531 C 296.925781 207.828125 296.734375 207.800781 296.535156 207.8125 L 277.320312 207.8125 L 277.320312 171.015625 L 303.292969 171.015625 C 303.480469 171.015625 303.667969 170.976562 303.84375 170.902344 C 304.019531 170.832031 304.175781 170.726562 304.308594 170.589844 C 304.445312 170.457031 304.546875 170.300781 304.621094 170.121094 C 304.695312 169.945312 304.730469 169.761719 304.730469 169.570312 Z M 291.96875 96.480469 C 292.382812 96.789062 292.765625 97.132812 293.117188 97.511719 C 293.464844 97.890625 293.78125 98.296875 294.058594 98.734375 C 294.335938 99.167969 294.570312 99.625 294.761719 100.105469 C 294.957031 100.585938 295.105469 101.078125 295.207031 101.582031 C 295.3125 102.089844 295.367188 102.601562 295.378906 103.117188 C 295.386719 103.632812 295.351562 104.144531 295.269531 104.65625 C 295.183594 105.164062 295.054688 105.664062 294.882812 106.148438 C 294.707031 106.636719 294.488281 107.101562 294.230469 107.546875 L 269.882812 149.527344 L 269.882812 146.992188 C 269.882812 146.800781 269.847656 146.613281 269.773438 146.4375 C 269.703125 146.261719 269.597656 146.105469 269.460938 145.96875 C 269.324219 145.832031 269.167969 145.730469 268.992188 145.65625 C 268.816406 145.582031 268.632812 145.546875 268.441406 145.546875 L 264.128906 145.546875 Z M 266.996094 148.398438 L 266.996094 153.40625 L 204.464844 153.40625 C 203.730469 153.40625 203.015625 153.285156 202.324219 153.042969 C 201.628906 152.804688 200.996094 152.453125 200.421875 152 C 199.847656 151.542969 199.363281 151.003906 198.972656 150.382812 C 198.578125 149.765625 198.300781 149.097656 198.136719 148.382812 Z M 175.007812 44.433594 C 179.800781 47.378906 182.855469 52.683594 182.820312 57.847656 C 177.785156 56.523438 172.664062 55.871094 167.457031 55.894531 C 165.992188 53.394531 164.175781 51.183594 162.003906 49.265625 C 159.828125 47.347656 157.414062 45.820312 154.75 44.675781 C 164.640625 39.8125 171.59375 42.335938 175.007812 44.433594 Z M 83.410156 202.867188 C 80.710938 202.515625 78.3125 200.359375 77.441406 197.507812 C 76.511719 194.476562 77.441406 190.65625 79.550781 188.851562 C 80.042969 188.429688 80.597656 188.128906 81.21875 187.945312 C 81.839844 187.761719 82.46875 187.710938 83.109375 187.796875 C 83.6875 187.875 84.226562 188.0625 84.722656 188.367188 C 85.21875 188.671875 85.632812 189.0625 85.964844 189.542969 C 86.105469 190.121094 86.238281 190.703125 86.390625 191.292969 C 87.175781 194.519531 88.582031 197.445312 90.609375 200.074219 C 88.507812 202.144531 85.84375 203.1875 83.410156 202.867188 Z M 89.214844 190.550781 C 81.519531 161.078125 89.683594 137.917969 97.882812 123.683594 C 106.445312 108.832031 116.816406 100.3125 117.75 99.558594 C 121.496094 105.597656 126.945312 109.792969 133.421875 111.515625 C 135.539062 112.082031 137.691406 112.367188 139.882812 112.367188 C 141.382812 112.363281 142.875 112.230469 144.355469 111.96875 C 144.542969 111.933594 144.71875 111.867188 144.878906 111.761719 C 145.039062 111.65625 145.171875 111.523438 145.28125 111.367188 C 145.390625 111.210938 145.464844 111.035156 145.503906 110.851562 C 145.542969 110.664062 145.546875 110.476562 145.511719 110.285156 C 145.476562 110.097656 145.40625 109.921875 145.300781 109.761719 C 145.199219 109.601562 145.066406 109.46875 144.910156 109.359375 C 144.75 109.25 144.578125 109.175781 144.390625 109.136719 C 144.203125 109.097656 144.015625 109.09375 143.828125 109.128906 C 140.566406 109.710938 137.339844 109.578125 134.136719 108.730469 C 127.324219 106.910156 121.765625 101.992188 118.472656 94.871094 C 115.140625 87.664062 114.539062 79.058594 116.769531 70.703125 C 119 62.347656 123.828125 55.191406 130.308594 50.621094 C 136.707031 46.089844 143.984375 44.589844 150.792969 46.40625 C 160.324219 48.945312 167.328125 57.625 169.070312 69.070312 C 169.097656 69.257812 169.164062 69.4375 169.261719 69.597656 C 169.363281 69.761719 169.488281 69.902344 169.644531 70.015625 C 169.796875 70.128906 169.96875 70.207031 170.152344 70.253906 C 170.339844 70.296875 170.527344 70.304688 170.71875 70.277344 C 170.90625 70.25 171.082031 70.183594 171.246094 70.085938 C 171.410156 69.984375 171.550781 69.859375 171.664062 69.707031 C 171.777344 69.550781 171.855469 69.382812 171.902344 69.195312 C 171.949219 69.007812 171.957031 68.820312 171.925781 68.632812 C 171.421875 65.226562 170.441406 61.964844 168.988281 58.84375 C 173.980469 58.988281 186.828125 60.074219 195.941406 67.320312 C 203.0625 72.980469 205.65625 80.875 207.945312 87.84375 C 208.640625 89.953125 209.320312 92.019531 210.089844 93.949219 C 206.835938 94.820312 205.054688 99.160156 206.109375 103.769531 C 207.070312 107.984375 210.082031 110.972656 213.125 110.964844 C 213.027344 111.453125 212.832031 111.898438 212.535156 112.296875 C 209.644531 115.675781 205.261719 115.132812 202.597656 112.910156 C 202.449219 112.796875 202.285156 112.714844 202.105469 112.667969 C 201.925781 112.617188 201.746094 112.605469 201.5625 112.625 C 201.375 112.644531 201.203125 112.699219 201.039062 112.789062 C 200.875 112.875 200.734375 112.992188 200.617188 113.132812 C 200.496094 113.277344 200.410156 113.4375 200.351562 113.613281 C 200.292969 113.789062 200.269531 113.96875 200.28125 114.152344 C 200.296875 114.339844 200.339844 114.515625 200.421875 114.683594 C 200.5 114.851562 200.609375 114.996094 200.746094 115.121094 C 201.691406 115.90625 202.738281 116.507812 203.890625 116.925781 C 205.042969 117.34375 206.234375 117.558594 207.460938 117.5625 C 208.378906 117.5625 209.277344 117.433594 210.160156 117.179688 C 208.921875 119.761719 207.269531 122.042969 205.203125 124.03125 C 198.792969 130.195312 188.921875 132.816406 176.644531 131.59375 L 176.515625 131.59375 L 167.691406 125.996094 C 167.53125 125.902344 167.355469 125.839844 167.171875 125.816406 C 166.984375 125.789062 166.800781 125.796875 166.621094 125.84375 C 166.4375 125.886719 166.269531 125.964844 166.117188 126.074219 C 165.964844 126.183594 165.839844 126.316406 165.742188 126.476562 C 165.640625 126.636719 165.574219 126.808594 165.542969 126.992188 C 165.511719 127.175781 165.511719 127.359375 165.550781 127.542969 C 165.589844 127.726562 165.664062 127.894531 165.765625 128.050781 C 165.871094 128.207031 166.003906 128.335938 166.15625 128.441406 L 182.507812 138.683594 C 182.972656 138.972656 183.402344 139.304688 183.800781 139.675781 C 184.199219 140.050781 184.558594 140.457031 184.878906 140.898438 C 185.199219 141.34375 185.472656 141.8125 185.703125 142.308594 C 185.933594 142.804688 186.109375 143.316406 186.238281 143.847656 C 186.367188 144.378906 186.445312 144.917969 186.46875 145.460938 C 186.492188 146.007812 186.464844 146.550781 186.382812 147.089844 C 186.304688 147.628906 186.171875 148.15625 185.988281 148.671875 C 185.804688 149.1875 185.570312 149.679688 185.292969 150.148438 C 185.023438 150.597656 184.714844 151.019531 184.367188 151.414062 C 184.019531 151.808594 183.636719 152.164062 183.222656 152.488281 C 182.808594 152.8125 182.371094 153.09375 181.902344 153.335938 C 181.4375 153.578125 180.953125 153.773438 180.449219 153.925781 C 179.945312 154.078125 179.433594 154.179688 178.910156 154.238281 C 178.386719 154.296875 177.867188 154.304688 177.339844 154.265625 C 176.816406 154.222656 176.300781 154.136719 175.792969 154 C 175.285156 153.863281 174.796875 153.683594 174.320312 153.457031 L 157.195312 145.175781 C 157.023438 145.097656 156.84375 145.054688 156.65625 145.046875 C 156.46875 145.039062 156.285156 145.066406 156.105469 145.128906 C 155.929688 145.195312 155.769531 145.289062 155.628906 145.414062 C 155.488281 145.542969 155.375 145.691406 155.292969 145.859375 C 155.210938 146.03125 155.164062 146.207031 155.152344 146.398438 C 155.140625 146.585938 155.164062 146.769531 155.222656 146.949219 C 155.285156 147.128906 155.375 147.289062 155.5 147.433594 C 155.621094 147.574219 155.769531 147.691406 155.9375 147.777344 L 169.5 154.339844 L 162.707031 154.339844 C 162.515625 154.339844 162.332031 154.375 162.15625 154.449219 C 161.976562 154.519531 161.820312 154.625 161.6875 154.761719 C 161.550781 154.894531 161.445312 155.050781 161.375 155.230469 C 161.300781 155.40625 161.261719 155.589844 161.261719 155.78125 L 161.261719 169.554688 C 161.261719 169.746094 161.300781 169.929688 161.375 170.109375 C 161.445312 170.285156 161.550781 170.441406 161.6875 170.578125 C 161.820312 170.710938 161.976562 170.816406 162.15625 170.890625 C 162.332031 170.960938 162.515625 171 162.707031 171 L 168.140625 171 C 166.71875 172.304688 165.542969 173.808594 164.617188 175.5 L 159.179688 173.878906 C 158.394531 173.652344 157.644531 173.339844 156.9375 172.929688 C 156.230469 172.519531 155.582031 172.03125 154.996094 171.460938 C 154.410156 170.890625 153.902344 170.257812 153.476562 169.5625 C 153.046875 168.863281 152.710938 168.125 152.464844 167.347656 C 149.925781 158.914062 142.261719 153.4375 132.953125 153.40625 L 132.886719 153.40625 C 131.371094 153.429688 129.871094 153.601562 128.386719 153.914062 C 126.902344 154.230469 125.460938 154.683594 124.0625 155.273438 C 122.667969 155.867188 121.339844 156.585938 120.078125 157.433594 C 118.820312 158.28125 117.65625 159.238281 116.582031 160.308594 C 115.589844 161.273438 114.703125 162.324219 113.925781 163.460938 C 113.144531 164.601562 112.488281 165.808594 111.953125 167.082031 C 111.417969 168.351562 111.011719 169.667969 110.742188 171.019531 C 110.46875 172.375 110.335938 173.742188 110.339844 175.121094 C 110.339844 175.3125 110.378906 175.496094 110.453125 175.675781 C 110.523438 175.851562 110.628906 176.007812 110.765625 176.144531 C 110.898438 176.277344 111.054688 176.382812 111.234375 176.457031 C 111.410156 176.527344 111.59375 176.566406 111.785156 176.566406 C 111.976562 176.566406 112.164062 176.527344 112.339844 176.457031 C 112.515625 176.382812 112.671875 176.277344 112.808594 176.144531 C 112.945312 176.007812 113.046875 175.851562 113.121094 175.675781 C 113.195312 175.496094 113.230469 175.3125 113.230469 175.121094 C 113.230469 173.929688 113.347656 172.753906 113.585938 171.585938 C 113.824219 170.421875 114.171875 169.289062 114.636719 168.195312 C 115.101562 167.097656 115.671875 166.058594 116.34375 165.078125 C 117.019531 164.097656 117.78125 163.191406 118.636719 162.367188 C 120.53125 160.46875 122.714844 159 125.183594 157.949219 C 127.648438 156.902344 130.222656 156.351562 132.902344 156.304688 L 132.957031 156.304688 C 141.101562 156.332031 147.523438 160.882812 149.722656 168.191406 C 150.035156 169.199219 150.46875 170.152344 151.019531 171.054688 C 151.570312 171.957031 152.222656 172.777344 152.976562 173.515625 C 153.734375 174.253906 154.566406 174.890625 155.480469 175.421875 C 156.394531 175.953125 157.359375 176.363281 158.375 176.65625 L 163.335938 178.136719 C 162.101562 181.070312 161.246094 184.113281 160.769531 187.261719 C 160.734375 187.453125 160.742188 187.644531 160.789062 187.835938 C 160.835938 188.023438 160.917969 188.195312 161.035156 188.355469 C 161.148438 188.511719 161.292969 188.640625 161.460938 188.738281 C 161.628906 188.835938 161.808594 188.898438 162.003906 188.925781 C 162.199219 188.949219 162.386719 188.9375 162.578125 188.886719 C 162.765625 188.832031 162.9375 188.746094 163.089844 188.625 C 163.242188 188.503906 163.367188 188.359375 163.460938 188.1875 C 163.554688 188.015625 163.613281 187.835938 163.632812 187.640625 C 163.65625 187.472656 166 170.710938 175.90625 171.011719 C 178.648438 171.101562 181.179688 176.148438 181.769531 182.757812 C 182.597656 191.894531 179.660156 202.546875 171.277344 204.371094 C 163.992188 205.914062 156.644531 207.0625 149.234375 207.8125 L 117.027344 207.8125 C 103.316406 205.917969 92.5625 203.425781 89.203125 190.550781 Z M 257.273438 171.015625 L 257.273438 207.8125 L 202.566406 207.8125 L 202.566406 171.015625 Z M 199.679688 207.8125 L 185.386719 207.8125 L 185.386719 171.015625 L 199.679688 171.015625 Z M 182.523438 207.8125 L 168.882812 207.8125 C 170.144531 207.5625 171.164062 207.347656 171.894531 207.191406 C 177.039062 206.078125 180.492188 202.378906 182.523438 197.644531 Z M 182.523438 173.828125 C 182.082031 172.832031 181.535156 171.890625 180.882812 171.015625 L 182.523438 171.015625 Z M 274.429688 207.8125 L 260.164062 207.8125 L 260.164062 171.015625 L 274.429688 171.015625 Z M 301.855469 168.125 L 164.199219 168.125 L 164.199219 157.238281 L 301.855469 157.238281 Z M 301.855469 168.125 " fill-opacity="1" fill-rule="nonzero"/></g><path fill="#000000" d="M 197.492188 85.671875 C 197.492188 86.136719 197.445312 86.597656 197.355469 87.054688 C 197.265625 87.507812 197.128906 87.953125 196.953125 88.378906 C 196.773438 88.808594 196.558594 89.21875 196.296875 89.601562 C 196.039062 89.988281 195.746094 90.347656 195.417969 90.675781 C 195.089844 91.003906 194.730469 91.296875 194.347656 91.554688 C 193.960938 91.8125 193.550781 92.03125 193.121094 92.207031 C 192.691406 92.386719 192.25 92.519531 191.792969 92.609375 C 191.339844 92.703125 190.878906 92.746094 190.414062 92.746094 C 189.949219 92.746094 189.488281 92.703125 189.03125 92.609375 C 188.578125 92.519531 188.132812 92.386719 187.703125 92.207031 C 187.277344 92.03125 186.867188 91.8125 186.480469 91.554688 C 186.09375 91.296875 185.738281 91.003906 185.410156 90.675781 C 185.082031 90.347656 184.785156 89.988281 184.527344 89.601562 C 184.269531 89.21875 184.050781 88.808594 183.875 88.378906 C 183.695312 87.953125 183.5625 87.507812 183.472656 87.054688 C 183.382812 86.597656 183.335938 86.136719 183.335938 85.671875 C 183.335938 85.207031 183.382812 84.75 183.472656 84.292969 C 183.5625 83.839844 183.695312 83.394531 183.875 82.964844 C 184.050781 82.539062 184.269531 82.128906 184.527344 81.742188 C 184.785156 81.355469 185.082031 81 185.410156 80.671875 C 185.738281 80.34375 186.09375 80.050781 186.480469 79.792969 C 186.867188 79.535156 187.277344 79.316406 187.703125 79.136719 C 188.132812 78.960938 188.578125 78.828125 189.03125 78.734375 C 189.488281 78.644531 189.949219 78.601562 190.414062 78.601562 C 190.878906 78.601562 191.339844 78.644531 191.792969 78.734375 C 192.25 78.828125 192.691406 78.960938 193.121094 79.136719 C 193.550781 79.316406 193.960938 79.535156 194.347656 79.792969 C 194.730469 80.050781 195.089844 80.34375 195.417969 80.671875 C 195.746094 81 196.039062 81.355469 196.296875 81.742188 C 196.558594 82.128906 196.773438 82.539062 196.953125 82.964844 C 197.128906 83.394531 197.265625 83.839844 197.355469 84.292969 C 197.445312 84.75 197.492188 85.207031 197.492188 85.671875 Z M 197.492188 85.671875 " fill-opacity="1" fill-rule="nonzero"/><g clip-path="url(#fbca5b1b96)"><path fill="#000000" d="M 315.269531 207.8125 L 305.917969 207.8125 C 305.71875 207.800781 305.527344 207.828125 305.339844 207.894531 C 305.152344 207.964844 304.984375 208.066406 304.839844 208.203125 C 304.695312 208.339844 304.582031 208.496094 304.503906 208.679688 C 304.425781 208.863281 304.386719 209.054688 304.386719 209.253906 C 304.386719 209.453125 304.425781 209.644531 304.503906 209.828125 C 304.582031 210.007812 304.695312 210.167969 304.839844 210.304688 C 304.984375 210.441406 305.152344 210.542969 305.339844 210.613281 C 305.527344 210.679688 305.71875 210.707031 305.917969 210.695312 L 315.269531 210.695312 C 315.46875 210.707031 315.660156 210.679688 315.847656 210.613281 C 316.035156 210.542969 316.203125 210.441406 316.347656 210.304688 C 316.492188 210.167969 316.605469 210.007812 316.683594 209.828125 C 316.761719 209.644531 316.800781 209.453125 316.800781 209.253906 C 316.800781 209.054688 316.761719 208.863281 316.683594 208.679688 C 316.605469 208.496094 316.492188 208.339844 316.347656 208.203125 C 316.203125 208.066406 316.035156 207.964844 315.847656 207.894531 C 315.660156 207.828125 315.46875 207.800781 315.269531 207.8125 Z M 315.269531 207.8125 " fill-opacity="1" fill-rule="nonzero"/></g><path fill="#000000" d="M 149.972656 100.511719 C 150.675781 100.15625 151.324219 99.71875 151.910156 99.191406 C 152.5 98.664062 153.007812 98.070312 153.433594 97.410156 C 153.863281 96.746094 154.199219 96.039062 154.4375 95.289062 C 154.675781 94.535156 154.8125 93.765625 154.84375 92.980469 C 154.84375 91.9375 154.742188 90.910156 154.539062 89.890625 C 154.4375 89.308594 154.34375 88.757812 154.296875 88.21875 C 154.238281 87.558594 154.195312 85.941406 155.09375 85.15625 C 155.757812 84.566406 156.828125 84.488281 158.074219 84.394531 C 159.078125 84.355469 160.0625 84.195312 161.027344 83.914062 C 164.421875 82.789062 166.132812 79.09375 166.0625 76.007812 C 166.003906 73.371094 164.917969 70.640625 162.746094 67.714844 C 160.785156 65.089844 158.457031 62.839844 155.765625 60.972656 C 153.070312 59.101562 150.148438 57.707031 147.003906 56.789062 C 146.816406 56.734375 146.628906 56.71875 146.4375 56.742188 C 146.246094 56.761719 146.066406 56.820312 145.894531 56.914062 C 145.726562 57.007812 145.582031 57.128906 145.460938 57.277344 C 145.34375 57.429688 145.253906 57.597656 145.203125 57.78125 C 145.148438 57.96875 145.132812 58.15625 145.152344 58.347656 C 145.175781 58.539062 145.234375 58.71875 145.324219 58.886719 C 145.417969 59.054688 145.539062 59.199219 145.691406 59.320312 C 145.84375 59.441406 146.011719 59.527344 146.195312 59.582031 C 149.042969 60.410156 151.6875 61.667969 154.121094 63.359375 C 156.558594 65.050781 158.664062 67.082031 160.433594 69.460938 C 162.238281 71.882812 163.140625 74.054688 163.1875 76.089844 C 163.234375 78.125 162.179688 80.496094 160.117188 81.191406 C 159.375 81.394531 158.621094 81.507812 157.851562 81.535156 C 156.3125 81.652344 154.570312 81.785156 153.183594 83.011719 C 151.796875 84.238281 151.210938 86.140625 151.417969 88.492188 C 151.480469 89.152344 151.585938 89.785156 151.691406 90.394531 C 151.859375 91.226562 151.949219 92.066406 151.960938 92.914062 C 151.945312 93.441406 151.859375 93.957031 151.703125 94.460938 C 151.546875 94.960938 151.324219 95.433594 151.039062 95.875 C 150.75 96.320312 150.410156 96.714844 150.015625 97.0625 C 149.621094 97.410156 149.1875 97.699219 148.710938 97.929688 C 148.238281 98.160156 147.742188 98.320312 147.222656 98.414062 C 146.703125 98.507812 146.183594 98.527344 145.65625 98.480469 C 145.132812 98.429688 144.625 98.308594 144.132812 98.121094 C 143.640625 97.929688 143.183594 97.679688 142.761719 97.363281 C 142.449219 97.191406 142.113281 97.140625 141.761719 97.214844 C 141.410156 97.289062 141.128906 97.46875 140.910156 97.753906 C 140.691406 98.039062 140.59375 98.363281 140.617188 98.71875 C 140.640625 99.078125 140.78125 99.386719 141.03125 99.640625 C 142.585938 100.777344 144.328125 101.339844 146.253906 101.328125 C 147.554688 101.339844 148.792969 101.066406 149.972656 100.511719 Z M 149.972656 100.511719 " fill-opacity="1" fill-rule="nonzero"/><path fill="#ffffff" d="M 196.089844 87.691406 C 196.089844 88.035156 196.023438 88.367188 195.890625 88.683594 C 195.757812 89.003906 195.570312 89.28125 195.328125 89.527344 C 195.085938 89.769531 194.804688 89.957031 194.488281 90.089844 C 194.167969 90.21875 193.835938 90.285156 193.492188 90.285156 C 193.148438 90.285156 192.820312 90.21875 192.5 90.089844 C 192.183594 89.957031 191.902344 89.769531 191.660156 89.527344 C 191.414062 89.28125 191.226562 89.003906 191.097656 88.683594 C 190.964844 88.367188 190.898438 88.035156 190.898438 87.691406 C 190.898438 87.347656 190.964844 87.015625 191.097656 86.699219 C 191.226562 86.382812 191.414062 86.101562 191.660156 85.859375 C 191.902344 85.617188 192.183594 85.429688 192.5 85.296875 C 192.820312 85.164062 193.148438 85.097656 193.492188 85.097656 C 193.835938 85.097656 194.167969 85.164062 194.488281 85.296875 C 194.804688 85.429688 195.085938 85.617188 195.328125 85.859375 C 195.570312 86.101562 195.757812 86.382812 195.890625 86.699219 C 196.023438 87.015625 196.089844 87.347656 196.089844 87.691406 Z M 196.089844 87.691406 " fill-opacity="1" fill-rule="nonzero"/><g fill="#ffffff" fill-opacity="1"><g transform="translate(74.742167, 270.024313)"><g><path d="M 1.6875 -21.203125 C 1.46875 -21.535156 1.265625 -21.988281 1.078125 -22.5625 C 0.898438 -23.144531 0.8125 -23.753906 0.8125 -24.390625 C 0.8125 -25.578125 1.078125 -26.425781 1.609375 -26.9375 C 2.140625 -27.457031 2.832031 -27.71875 3.6875 -27.71875 L 23.53125 -27.71875 C 23.738281 -27.382812 23.929688 -26.925781 24.109375 -26.34375 C 24.296875 -25.769531 24.390625 -25.164062 24.390625 -24.53125 C 24.390625 -23.34375 24.125 -22.488281 23.59375 -21.96875 C 23.0625 -21.457031 22.375 -21.203125 21.53125 -21.203125 L 16.484375 -21.203125 L 16.484375 -0.1875 C 16.140625 -0.09375 15.613281 0 14.90625 0.09375 C 14.195312 0.1875 13.492188 0.234375 12.796875 0.234375 C 12.097656 0.234375 11.484375 0.175781 10.953125 0.0625 C 10.421875 -0.0390625 9.972656 -0.226562 9.609375 -0.5 C 9.242188 -0.769531 8.96875 -1.144531 8.78125 -1.625 C 8.601562 -2.113281 8.515625 -2.753906 8.515625 -3.546875 L 8.515625 -21.203125 Z M 1.6875 -21.203125 "/></g></g></g><g fill="#ffffff" fill-opacity="1"><g transform="translate(97.317546, 270.024313)"><g><path d="M 10.875 -8.921875 L 10.875 -0.1875 C 10.539062 -0.09375 10.015625 0 9.296875 0.09375 C 8.585938 0.1875 7.882812 0.234375 7.1875 0.234375 C 6.488281 0.234375 5.875 0.175781 5.34375 0.0625 C 4.8125 -0.0390625 4.367188 -0.226562 4.015625 -0.5 C 3.671875 -0.769531 3.40625 -1.144531 3.21875 -1.625 C 3.039062 -2.113281 2.953125 -2.753906 2.953125 -3.546875 L 2.953125 -24.984375 C 2.953125 -25.617188 3.125 -26.109375 3.46875 -26.453125 C 3.820312 -26.804688 4.304688 -27.09375 4.921875 -27.3125 C 5.953125 -27.675781 7.148438 -27.941406 8.515625 -28.109375 C 9.878906 -28.273438 11.332031 -28.359375 12.875 -28.359375 C 17.0625 -28.359375 20.21875 -27.476562 22.34375 -25.71875 C 24.46875 -23.957031 25.53125 -21.578125 25.53125 -18.578125 C 25.53125 -16.691406 25.046875 -15.082031 24.078125 -13.75 C 23.109375 -12.414062 21.957031 -11.382812 20.625 -10.65625 C 21.707031 -9.164062 22.78125 -7.765625 23.84375 -6.453125 C 24.90625 -5.148438 25.742188 -3.96875 26.359375 -2.90625 C 26.046875 -1.84375 25.488281 -1.03125 24.6875 -0.46875 C 23.882812 0.0820312 22.984375 0.359375 21.984375 0.359375 C 21.316406 0.359375 20.738281 0.28125 20.25 0.125 C 19.769531 -0.0195312 19.347656 -0.226562 18.984375 -0.5 C 18.617188 -0.769531 18.285156 -1.101562 17.984375 -1.5 C 17.679688 -1.894531 17.390625 -2.320312 17.109375 -2.78125 L 13.296875 -8.921875 Z M 13.75 -14.96875 C 14.894531 -14.96875 15.800781 -15.265625 16.46875 -15.859375 C 17.144531 -16.453125 17.484375 -17.328125 17.484375 -18.484375 C 17.484375 -19.628906 17.109375 -20.5 16.359375 -21.09375 C 15.617188 -21.6875 14.441406 -21.984375 12.828125 -21.984375 C 12.378906 -21.984375 12.015625 -21.96875 11.734375 -21.9375 C 11.460938 -21.90625 11.160156 -21.859375 10.828125 -21.796875 L 10.828125 -14.96875 Z M 13.75 -14.96875 "/></g></g></g><g fill="#ffffff" fill-opacity="1"><g transform="translate(122.305271, 270.024313)"><g><path d="M 1.59375 -13.84375 C 1.59375 -16.207031 1.960938 -18.296875 2.703125 -20.109375 C 3.453125 -21.929688 4.46875 -23.457031 5.75 -24.6875 C 7.039062 -25.914062 8.554688 -26.847656 10.296875 -27.484375 C 12.046875 -28.128906 13.9375 -28.453125 15.96875 -28.453125 C 18.007812 -28.453125 19.898438 -28.128906 21.640625 -27.484375 C 23.390625 -26.847656 24.914062 -25.914062 26.21875 -24.6875 C 27.519531 -23.457031 28.539062 -21.929688 29.28125 -20.109375 C 30.03125 -18.296875 30.40625 -16.207031 30.40625 -13.84375 C 30.40625 -11.46875 30.039062 -9.363281 29.3125 -7.53125 C 28.582031 -5.695312 27.570312 -4.164062 26.28125 -2.9375 C 24.988281 -1.707031 23.460938 -0.773438 21.703125 -0.140625 C 19.953125 0.492188 18.039062 0.8125 15.96875 0.8125 C 13.90625 0.8125 11.992188 0.488281 10.234375 -0.15625 C 8.472656 -0.8125 6.957031 -1.757812 5.6875 -3 C 4.414062 -4.25 3.414062 -5.78125 2.6875 -7.59375 C 1.957031 -9.414062 1.59375 -11.5 1.59375 -13.84375 Z M 9.78125 -13.84375 C 9.78125 -11.070312 10.34375 -9.003906 11.46875 -7.640625 C 12.59375 -6.273438 14.09375 -5.59375 15.96875 -5.59375 C 17.882812 -5.59375 19.40625 -6.273438 20.53125 -7.640625 C 21.65625 -9.003906 22.21875 -11.070312 22.21875 -13.84375 C 22.21875 -16.570312 21.660156 -18.617188 20.546875 -19.984375 C 19.441406 -21.347656 17.929688 -22.03125 16.015625 -22.03125 C 14.140625 -22.03125 12.628906 -21.351562 11.484375 -20 C 10.347656 -18.65625 9.78125 -16.601562 9.78125 -13.84375 Z M 11.921875 6.421875 C 11.921875 5.359375 12.300781 4.4375 13.0625 3.65625 C 13.820312 2.882812 14.789062 2.5 15.96875 2.5 C 17.15625 2.5 18.128906 2.882812 18.890625 3.65625 C 19.648438 4.4375 20.03125 5.359375 20.03125 6.421875 C 20.03125 7.484375 19.648438 8.398438 18.890625 9.171875 C 18.128906 9.941406 17.15625 10.328125 15.96875 10.328125 C 14.789062 10.328125 13.820312 9.941406 13.0625 9.171875 C 12.300781 8.398438 11.921875 7.484375 11.921875 6.421875 Z M 11.921875 6.421875 "/></g></g></g><g fill="#ffffff" fill-opacity="1"><g transform="translate(151.571496, 270.024313)"><g><path d="M 27.953125 -0.953125 C 27.523438 -0.523438 26.90625 -0.203125 26.09375 0.015625 C 25.289062 0.242188 24.332031 0.359375 23.21875 0.359375 C 22.09375 0.359375 21.03125 0.191406 20.03125 -0.140625 C 19.03125 -0.472656 18.207031 -1.273438 17.5625 -2.546875 L 13.0625 -11.75 C 12.601562 -12.6875 12.191406 -13.570312 11.828125 -14.40625 C 11.460938 -15.238281 11.070312 -16.203125 10.65625 -17.296875 L 10.375 -17.25 C 10.5 -15.613281 10.566406 -13.941406 10.578125 -12.234375 C 10.597656 -10.535156 10.609375 -8.867188 10.609375 -7.234375 L 10.609375 -0.1875 C 10.273438 -0.09375 9.765625 0 9.078125 0.09375 C 8.398438 0.1875 7.726562 0.234375 7.0625 0.234375 C 6.382812 0.234375 5.785156 0.1875 5.265625 0.09375 C 4.753906 0 4.332031 -0.179688 4 -0.453125 C 3.664062 -0.722656 3.40625 -1.09375 3.21875 -1.5625 C 3.039062 -2.039062 2.953125 -2.65625 2.953125 -3.40625 L 2.953125 -26.171875 C 3.378906 -26.773438 4.03125 -27.226562 4.90625 -27.53125 C 5.789062 -27.832031 6.734375 -27.984375 7.734375 -27.984375 C 8.859375 -27.984375 9.925781 -27.804688 10.9375 -27.453125 C 11.957031 -27.109375 12.769531 -26.316406 13.375 -25.078125 L 17.9375 -15.890625 C 18.382812 -14.941406 18.789062 -14.050781 19.15625 -13.21875 C 19.519531 -12.382812 19.914062 -11.421875 20.34375 -10.328125 L 20.578125 -10.375 C 20.453125 -12.007812 20.375 -13.644531 20.34375 -15.28125 C 20.3125 -16.925781 20.296875 -18.566406 20.296875 -20.203125 L 20.296875 -27.578125 C 20.628906 -27.671875 21.132812 -27.757812 21.8125 -27.84375 C 22.5 -27.9375 23.175781 -27.984375 23.84375 -27.984375 C 25.1875 -27.984375 26.207031 -27.75 26.90625 -27.28125 C 27.601562 -26.8125 27.953125 -25.832031 27.953125 -24.34375 Z M 27.953125 -0.953125 "/></g></g></g><g fill="#ffffff" fill-opacity="1"><g transform="translate(179.745343, 270.024313)"><g><path d="M 27.953125 -4.5 C 27.953125 -3.5625 27.78125 -2.863281 27.4375 -2.40625 C 27.101562 -1.957031 26.578125 -1.519531 25.859375 -1.09375 C 25.429688 -0.851562 24.894531 -0.617188 24.25 -0.390625 C 23.613281 -0.160156 22.914062 0.0351562 22.15625 0.203125 C 21.40625 0.367188 20.613281 0.5 19.78125 0.59375 C 18.945312 0.6875 18.117188 0.734375 17.296875 0.734375 C 15.109375 0.734375 13.054688 0.4375 11.140625 -0.15625 C 9.234375 -0.75 7.570312 -1.644531 6.15625 -2.84375 C 4.75 -4.039062 3.632812 -5.535156 2.8125 -7.328125 C 2 -9.117188 1.59375 -11.195312 1.59375 -13.5625 C 1.59375 -16.050781 2.039062 -18.21875 2.9375 -20.0625 C 3.832031 -21.914062 5.015625 -23.457031 6.484375 -24.6875 C 7.953125 -25.914062 9.632812 -26.832031 11.53125 -27.4375 C 13.4375 -28.050781 15.390625 -28.359375 17.390625 -28.359375 C 20.265625 -28.359375 22.546875 -27.894531 24.234375 -26.96875 C 25.921875 -26.039062 26.765625 -24.832031 26.765625 -23.34375 C 26.765625 -22.5625 26.566406 -21.878906 26.171875 -21.296875 C 25.773438 -20.722656 25.320312 -20.269531 24.8125 -19.9375 C 24.050781 -20.394531 23.097656 -20.84375 21.953125 -21.28125 C 20.816406 -21.71875 19.535156 -21.9375 18.109375 -21.9375 C 15.566406 -21.9375 13.539062 -21.207031 12.03125 -19.75 C 10.53125 -18.289062 9.78125 -16.273438 9.78125 -13.703125 C 9.78125 -12.304688 9.984375 -11.097656 10.390625 -10.078125 C 10.804688 -9.066406 11.363281 -8.234375 12.0625 -7.578125 C 12.757812 -6.921875 13.5625 -6.429688 14.46875 -6.109375 C 15.382812 -5.796875 16.359375 -5.640625 17.390625 -5.640625 C 18.054688 -5.640625 18.644531 -5.703125 19.15625 -5.828125 C 19.675781 -5.953125 20.070312 -6.085938 20.34375 -6.234375 L 20.34375 -10.515625 L 15.46875 -10.515625 C 15.289062 -10.847656 15.117188 -11.285156 14.953125 -11.828125 C 14.785156 -12.378906 14.703125 -12.957031 14.703125 -13.5625 C 14.703125 -14.65625 14.953125 -15.441406 15.453125 -15.921875 C 15.953125 -16.410156 16.597656 -16.65625 17.390625 -16.65625 L 25.078125 -16.65625 C 25.984375 -16.65625 26.6875 -16.40625 27.1875 -15.90625 C 27.695312 -15.40625 27.953125 -14.703125 27.953125 -13.796875 Z M 27.953125 -4.5 "/></g></g></g><g fill="#ffffff" fill-opacity="1"><g transform="translate(207.23646, 270.024313)"><g/></g></g><g fill="#ffffff" fill-opacity="1"><g transform="translate(213.608141, 270.024313)"><g><path d="M 15.015625 0.734375 C 14.503906 0.734375 13.914062 0.71875 13.25 0.6875 C 12.582031 0.65625 11.890625 0.59375 11.171875 0.5 C 10.460938 0.40625 9.75 0.289062 9.03125 0.15625 C 8.320312 0.0195312 7.664062 -0.164062 7.0625 -0.40625 C 5.382812 -1.039062 4.546875 -2.148438 4.546875 -3.734375 L 4.546875 -10.734375 L 1.5 -10.734375 C 1.320312 -11.078125 1.140625 -11.507812 0.953125 -12.03125 C 0.773438 -12.5625 0.6875 -13.117188 0.6875 -13.703125 C 0.6875 -14.859375 0.9375 -15.675781 1.4375 -16.15625 C 1.9375 -16.644531 2.582031 -16.890625 3.375 -16.890625 L 4.546875 -16.890625 L 4.546875 -24.984375 C 4.546875 -25.617188 4.71875 -26.109375 5.0625 -26.453125 C 5.414062 -26.804688 5.898438 -27.09375 6.515625 -27.3125 C 7.816406 -27.738281 9.191406 -28.019531 10.640625 -28.15625 C 12.097656 -28.289062 13.40625 -28.359375 14.5625 -28.359375 C 16.925781 -28.359375 19.070312 -28.066406 21 -27.484375 C 22.925781 -26.910156 24.578125 -26.023438 25.953125 -24.828125 C 27.335938 -23.628906 28.410156 -22.117188 29.171875 -20.296875 C 29.929688 -18.472656 30.3125 -16.320312 30.3125 -13.84375 C 30.3125 -11.414062 29.945312 -9.296875 29.21875 -7.484375 C 28.488281 -5.679688 27.445312 -4.164062 26.09375 -2.9375 C 24.75 -1.707031 23.132812 -0.785156 21.25 -0.171875 C 19.375 0.429688 17.296875 0.734375 15.015625 0.734375 Z M 12.46875 -5.921875 C 12.800781 -5.859375 13.207031 -5.800781 13.6875 -5.75 C 14.175781 -5.707031 14.632812 -5.6875 15.0625 -5.6875 C 16.09375 -5.6875 17.039062 -5.835938 17.90625 -6.140625 C 18.769531 -6.441406 19.515625 -6.910156 20.140625 -7.546875 C 20.765625 -8.191406 21.25 -9.019531 21.59375 -10.03125 C 21.945312 -11.050781 22.125 -12.273438 22.125 -13.703125 C 22.125 -16.429688 21.484375 -18.484375 20.203125 -19.859375 C 18.929688 -21.242188 17.234375 -21.9375 15.109375 -21.9375 C 14.679688 -21.9375 14.25 -21.921875 13.8125 -21.890625 C 13.375 -21.859375 12.925781 -21.8125 12.46875 -21.75 L 12.46875 -16.890625 L 16.484375 -16.890625 C 16.722656 -16.554688 16.914062 -16.125 17.0625 -15.59375 C 17.21875 -15.0625 17.296875 -14.503906 17.296875 -13.921875 C 17.296875 -12.773438 17.050781 -11.957031 16.5625 -11.46875 C 16.082031 -10.976562 15.429688 -10.734375 14.609375 -10.734375 L 12.46875 -10.734375 Z M 12.46875 -5.921875 "/></g></g></g><g fill="#ffffff" fill-opacity="1"><g transform="translate(242.783335, 270.024313)"><g><path d="M 15.65625 -46.375 C 15.894531 -46.4375 16.132812 -46.484375 16.375 -46.515625 C 16.625 -46.546875 16.867188 -46.5625 17.109375 -46.5625 C 17.992188 -46.5625 18.742188 -46.34375 19.359375 -45.90625 C 19.984375 -45.46875 20.296875 -44.757812 20.296875 -43.78125 C 20.296875 -43.269531 20.179688 -42.773438 19.953125 -42.296875 C 19.734375 -41.828125 19.316406 -41.351562 18.703125 -40.875 L 15.203125 -38.046875 C 14.804688 -38.078125 14.398438 -38.160156 13.984375 -38.296875 C 13.578125 -38.429688 13.210938 -38.617188 12.890625 -38.859375 C 12.578125 -39.109375 12.3125 -39.398438 12.09375 -39.734375 C 11.882812 -40.066406 11.78125 -40.429688 11.78125 -40.828125 C 11.78125 -41.429688 11.976562 -41.945312 12.375 -42.375 Z M 8.828125 -26.765625 C 9.347656 -27.066406 10.128906 -27.351562 11.171875 -27.625 C 12.222656 -27.894531 13.28125 -28.03125 14.34375 -28.03125 C 15.851562 -28.03125 17.191406 -27.8125 18.359375 -27.375 C 19.535156 -26.9375 20.289062 -26.25 20.625 -25.3125 C 21.164062 -23.726562 21.753906 -21.890625 22.390625 -19.796875 C 23.023438 -17.703125 23.660156 -15.539062 24.296875 -13.3125 C 24.941406 -11.082031 25.566406 -8.878906 26.171875 -6.703125 C 26.773438 -4.535156 27.304688 -2.617188 27.765625 -0.953125 C 27.398438 -0.523438 26.851562 -0.1875 26.125 0.0625 C 25.394531 0.320312 24.53125 0.453125 23.53125 0.453125 C 22.800781 0.453125 22.1875 0.390625 21.6875 0.265625 C 21.1875 0.148438 20.773438 -0.0234375 20.453125 -0.265625 C 20.140625 -0.515625 19.882812 -0.835938 19.6875 -1.234375 C 19.488281 -1.628906 19.3125 -2.082031 19.15625 -2.59375 L 18.34375 -5.734375 L 10.109375 -5.734375 C 9.859375 -4.828125 9.613281 -3.882812 9.375 -2.90625 C 9.132812 -1.9375 8.890625 -1 8.640625 -0.09375 C 8.222656 0.0625 7.773438 0.191406 7.296875 0.296875 C 6.828125 0.398438 6.257812 0.453125 5.59375 0.453125 C 4.050781 0.453125 2.90625 0.1875 2.15625 -0.34375 C 1.414062 -0.875 1.046875 -1.609375 1.046875 -2.546875 C 1.046875 -2.972656 1.101562 -3.394531 1.21875 -3.8125 C 1.34375 -4.238281 1.484375 -4.742188 1.640625 -5.328125 C 1.847656 -6.140625 2.140625 -7.15625 2.515625 -8.375 C 2.898438 -9.59375 3.316406 -10.90625 3.765625 -12.3125 C 4.222656 -13.71875 4.710938 -15.164062 5.234375 -16.65625 C 5.753906 -18.144531 6.238281 -19.546875 6.6875 -20.859375 C 7.144531 -22.179688 7.5625 -23.359375 7.9375 -24.390625 C 8.320312 -25.421875 8.617188 -26.210938 8.828125 -26.765625 Z M 14.296875 -20.890625 C 13.867188 -19.617188 13.390625 -18.203125 12.859375 -16.640625 C 12.328125 -15.078125 11.847656 -13.488281 11.421875 -11.875 L 17.0625 -11.875 C 16.644531 -13.519531 16.210938 -15.125 15.765625 -16.6875 C 15.328125 -18.25 14.925781 -19.648438 14.5625 -20.890625 Z M 14.390625 -30.078125 C 11.835938 -30.078125 9.878906 -30.539062 8.515625 -31.46875 C 7.148438 -32.394531 6.46875 -33.539062 6.46875 -34.90625 C 6.46875 -35.695312 6.757812 -36.441406 7.34375 -37.140625 C 7.9375 -37.835938 8.859375 -38.1875 10.109375 -38.1875 C 10.253906 -38.1875 10.390625 -38.1875 10.515625 -38.1875 C 10.640625 -38.1875 10.773438 -38.171875 10.921875 -38.140625 C 11.078125 -37.472656 11.457031 -36.910156 12.0625 -36.453125 C 12.664062 -36.003906 13.441406 -35.78125 14.390625 -35.78125 C 15.328125 -35.78125 16.085938 -36.003906 16.671875 -36.453125 C 17.265625 -36.910156 17.65625 -37.472656 17.84375 -38.140625 C 17.988281 -38.171875 18.125 -38.1875 18.25 -38.1875 C 18.375 -38.1875 18.507812 -38.1875 18.65625 -38.1875 C 19.90625 -38.1875 20.820312 -37.835938 21.40625 -37.140625 C 22 -36.441406 22.296875 -35.695312 22.296875 -34.90625 C 22.296875 -33.539062 21.613281 -32.394531 20.25 -31.46875 C 18.882812 -30.539062 16.929688 -30.078125 14.390625 -30.078125 Z M 14.390625 -30.078125 "/></g></g></g><g fill="#ffffff" fill-opacity="1"><g transform="translate(268.590334, 270.024313)"><g><path d="M 1.6875 -21.203125 C 1.46875 -21.535156 1.265625 -21.988281 1.078125 -22.5625 C 0.898438 -23.144531 0.8125 -23.753906 0.8125 -24.390625 C 0.8125 -25.578125 1.078125 -26.425781 1.609375 -26.9375 C 2.140625 -27.457031 2.832031 -27.71875 3.6875 -27.71875 L 23.53125 -27.71875 C 23.738281 -27.382812 23.929688 -26.925781 24.109375 -26.34375 C 24.296875 -25.769531 24.390625 -25.164062 24.390625 -24.53125 C 24.390625 -23.34375 24.125 -22.488281 23.59375 -21.96875 C 23.0625 -21.457031 22.375 -21.203125 21.53125 -21.203125 L 16.484375 -21.203125 L 16.484375 -0.1875 C 16.140625 -0.09375 15.613281 0 14.90625 0.09375 C 14.195312 0.1875 13.492188 0.234375 12.796875 0.234375 C 12.097656 0.234375 11.484375 0.175781 10.953125 0.0625 C 10.421875 -0.0390625 9.972656 -0.226562 9.609375 -0.5 C 9.242188 -0.769531 8.96875 -1.144531 8.78125 -1.625 C 8.601562 -2.113281 8.515625 -2.753906 8.515625 -3.546875 L 8.515625 -21.203125 Z M 1.6875 -21.203125 "/></g></g></g><g fill="#ffffff" fill-opacity="1"><g transform="translate(291.160469, 270.024313)"><g/></g></g><g fill="#ffffff" fill-opacity="1"><g transform="translate(112.212573, 309.079345)"><g><path d="M 0.46875 0 C 0.382812 0 0.3125 -0.03125 0.25 -0.09375 C 0.195312 -0.15625 0.171875 -0.222656 0.171875 -0.296875 C 0.171875 -0.335938 0.175781 -0.378906 0.1875 -0.421875 L 3.515625 -9.421875 C 3.546875 -9.523438 3.601562 -9.613281 3.6875 -9.6875 C 3.769531 -9.757812 3.882812 -9.796875 4.03125 -9.796875 L 5.828125 -9.796875 C 5.972656 -9.796875 6.085938 -9.757812 6.171875 -9.6875 C 6.253906 -9.613281 6.316406 -9.523438 6.359375 -9.421875 L 9.671875 -0.421875 C 9.691406 -0.378906 9.703125 -0.335938 9.703125 -0.296875 C 9.703125 -0.222656 9.671875 -0.15625 9.609375 -0.09375 C 9.546875 -0.03125 9.472656 0 9.390625 0 L 7.921875 0 C 7.796875 0 7.695312 -0.03125 7.625 -0.09375 C 7.5625 -0.164062 7.519531 -0.226562 7.5 -0.28125 L 6.90625 -1.84375 L 2.953125 -1.84375 L 2.359375 -0.28125 C 2.335938 -0.226562 2.296875 -0.164062 2.234375 -0.09375 C 2.171875 -0.03125 2.070312 0 1.9375 0 Z M 3.484375 -3.65625 L 6.375 -3.65625 L 4.921875 -7.671875 Z M 3.484375 -3.65625 "/></g></g></g><g fill="#ffffff" fill-opacity="1"><g transform="translate(128.363085, 309.079345)"><g><path d="M 1.375 0 C 1.28125 0 1.195312 -0.03125 1.125 -0.09375 C 1.0625 -0.164062 1.03125 -0.25 1.03125 -0.34375 L 1.03125 -9.453125 C 1.03125 -9.554688 1.0625 -9.640625 1.125 -9.703125 C 1.195312 -9.765625 1.28125 -9.796875 1.375 -9.796875 L 2.984375 -9.796875 C 3.078125 -9.796875 3.15625 -9.765625 3.21875 -9.703125 C 3.28125 -9.640625 3.3125 -9.554688 3.3125 -9.453125 L 3.3125 -0.34375 C 3.3125 -0.25 3.28125 -0.164062 3.21875 -0.09375 C 3.15625 -0.03125 3.078125 0 2.984375 0 Z M 1.375 0 "/></g></g></g><g fill="#ffffff" fill-opacity="1"><g transform="translate(139.014666, 309.079345)"><g/></g></g><g fill="#ffffff" fill-opacity="1"><g transform="translate(148.406949, 309.079345)"><g><path d="M 1.375 0 C 1.28125 0 1.195312 -0.03125 1.125 -0.09375 C 1.0625 -0.164062 1.03125 -0.25 1.03125 -0.34375 L 1.03125 -9.453125 C 1.03125 -9.554688 1.0625 -9.640625 1.125 -9.703125 C 1.195312 -9.765625 1.28125 -9.796875 1.375 -9.796875 L 7.734375 -9.796875 C 7.828125 -9.796875 7.90625 -9.765625 7.96875 -9.703125 C 8.039062 -9.640625 8.078125 -9.554688 8.078125 -9.453125 L 8.078125 -8.328125 C 8.078125 -8.222656 8.039062 -8.140625 7.96875 -8.078125 C 7.90625 -8.015625 7.828125 -7.984375 7.734375 -7.984375 L 3.1875 -7.984375 L 3.1875 -5.796875 L 7.421875 -5.796875 C 7.523438 -5.796875 7.609375 -5.757812 7.671875 -5.6875 C 7.734375 -5.625 7.765625 -5.546875 7.765625 -5.453125 L 7.765625 -4.40625 C 7.765625 -4.3125 7.734375 -4.226562 7.671875 -4.15625 C 7.609375 -4.09375 7.523438 -4.0625 7.421875 -4.0625 L 3.1875 -4.0625 L 3.1875 -1.8125 L 7.84375 -1.8125 C 7.945312 -1.8125 8.03125 -1.78125 8.09375 -1.71875 C 8.15625 -1.65625 8.1875 -1.570312 8.1875 -1.46875 L 8.1875 -0.34375 C 8.1875 -0.25 8.15625 -0.164062 8.09375 -0.09375 C 8.03125 -0.03125 7.945312 0 7.84375 0 Z M 1.375 0 "/></g></g></g><g fill="#ffffff" fill-opacity="1"><g transform="translate(163.536032, 309.079345)"><g><path d="M 1.375 0 C 1.28125 0 1.195312 -0.03125 1.125 -0.09375 C 1.0625 -0.164062 1.03125 -0.25 1.03125 -0.34375 L 1.03125 -9.453125 C 1.03125 -9.554688 1.0625 -9.640625 1.125 -9.703125 C 1.195312 -9.765625 1.28125 -9.796875 1.375 -9.796875 L 2.65625 -9.796875 C 2.800781 -9.796875 2.90625 -9.765625 2.96875 -9.703125 C 3.03125 -9.640625 3.070312 -9.585938 3.09375 -9.546875 L 6.8125 -3.71875 L 6.8125 -9.453125 C 6.8125 -9.554688 6.84375 -9.640625 6.90625 -9.703125 C 6.976562 -9.765625 7.066406 -9.796875 7.171875 -9.796875 L 8.59375 -9.796875 C 8.695312 -9.796875 8.78125 -9.765625 8.84375 -9.703125 C 8.914062 -9.640625 8.953125 -9.554688 8.953125 -9.453125 L 8.953125 -0.34375 C 8.953125 -0.25 8.914062 -0.164062 8.84375 -0.09375 C 8.78125 -0.03125 8.695312 0 8.59375 0 L 7.3125 0 C 7.164062 0 7.0625 -0.03125 7 -0.09375 C 6.9375 -0.164062 6.894531 -0.21875 6.875 -0.25 L 3.15625 -5.890625 L 3.15625 -0.34375 C 3.15625 -0.25 3.125 -0.164062 3.0625 -0.09375 C 3 -0.03125 2.914062 0 2.8125 0 Z M 1.375 0 "/></g></g></g><g fill="#ffffff" fill-opacity="1"><g transform="translate(179.812476, 309.079345)"><g><path d="M 4.96875 0.140625 C 4.09375 0.140625 3.34375 -0.00390625 2.71875 -0.296875 C 2.101562 -0.585938 1.625 -1.015625 1.28125 -1.578125 C 0.9375 -2.148438 0.753906 -2.835938 0.734375 -3.640625 C 0.722656 -4.035156 0.71875 -4.460938 0.71875 -4.921875 C 0.71875 -5.378906 0.722656 -5.816406 0.734375 -6.234375 C 0.753906 -7.015625 0.9375 -7.679688 1.28125 -8.234375 C 1.625 -8.785156 2.109375 -9.207031 2.734375 -9.5 C 3.367188 -9.789062 4.113281 -9.9375 4.96875 -9.9375 C 5.65625 -9.9375 6.257812 -9.847656 6.78125 -9.671875 C 7.3125 -9.492188 7.753906 -9.257812 8.109375 -8.96875 C 8.472656 -8.6875 8.742188 -8.378906 8.921875 -8.046875 C 9.109375 -7.710938 9.207031 -7.382812 9.21875 -7.0625 C 9.21875 -6.976562 9.1875 -6.910156 9.125 -6.859375 C 9.070312 -6.804688 9 -6.78125 8.90625 -6.78125 L 7.171875 -6.78125 C 7.078125 -6.78125 7.003906 -6.796875 6.953125 -6.828125 C 6.898438 -6.867188 6.851562 -6.925781 6.8125 -7 C 6.75 -7.15625 6.644531 -7.320312 6.5 -7.5 C 6.351562 -7.675781 6.160156 -7.820312 5.921875 -7.9375 C 5.679688 -8.0625 5.363281 -8.125 4.96875 -8.125 C 4.382812 -8.125 3.921875 -7.96875 3.578125 -7.65625 C 3.234375 -7.351562 3.050781 -6.851562 3.03125 -6.15625 C 3 -5.351562 3 -4.535156 3.03125 -3.703125 C 3.050781 -2.984375 3.238281 -2.46875 3.59375 -2.15625 C 3.945312 -1.84375 4.414062 -1.6875 5 -1.6875 C 5.382812 -1.6875 5.726562 -1.753906 6.03125 -1.890625 C 6.332031 -2.023438 6.570312 -2.234375 6.75 -2.515625 C 6.925781 -2.796875 7.015625 -3.160156 7.015625 -3.609375 L 7.015625 -3.96875 L 5.484375 -3.96875 C 5.390625 -3.96875 5.3125 -4 5.25 -4.0625 C 5.1875 -4.132812 5.15625 -4.21875 5.15625 -4.3125 L 5.15625 -5.203125 C 5.15625 -5.304688 5.1875 -5.390625 5.25 -5.453125 C 5.3125 -5.523438 5.390625 -5.5625 5.484375 -5.5625 L 8.9375 -5.5625 C 9.039062 -5.5625 9.125 -5.523438 9.1875 -5.453125 C 9.25 -5.390625 9.28125 -5.304688 9.28125 -5.203125 L 9.28125 -3.6875 C 9.28125 -2.882812 9.101562 -2.195312 8.75 -1.625 C 8.394531 -1.050781 7.890625 -0.613281 7.234375 -0.3125 C 6.585938 -0.0078125 5.832031 0.140625 4.96875 0.140625 Z M 4.96875 0.140625 "/></g></g></g><g fill="#ffffff" fill-opacity="1"><g transform="translate(196.046943, 309.079345)"><g><path d="M 1.375 0 C 1.28125 0 1.195312 -0.03125 1.125 -0.09375 C 1.0625 -0.164062 1.03125 -0.25 1.03125 -0.34375 L 1.03125 -9.453125 C 1.03125 -9.554688 1.0625 -9.640625 1.125 -9.703125 C 1.195312 -9.765625 1.28125 -9.796875 1.375 -9.796875 L 2.984375 -9.796875 C 3.078125 -9.796875 3.15625 -9.765625 3.21875 -9.703125 C 3.28125 -9.640625 3.3125 -9.554688 3.3125 -9.453125 L 3.3125 -0.34375 C 3.3125 -0.25 3.28125 -0.164062 3.21875 -0.09375 C 3.15625 -0.03125 3.078125 0 2.984375 0 Z M 1.375 0 "/></g></g></g><g fill="#ffffff" fill-opacity="1"><g transform="translate(206.698525, 309.079345)"><g><path d="M 1.375 0 C 1.28125 0 1.195312 -0.03125 1.125 -0.09375 C 1.0625 -0.164062 1.03125 -0.25 1.03125 -0.34375 L 1.03125 -9.453125 C 1.03125 -9.554688 1.0625 -9.640625 1.125 -9.703125 C 1.195312 -9.765625 1.28125 -9.796875 1.375 -9.796875 L 2.65625 -9.796875 C 2.800781 -9.796875 2.90625 -9.765625 2.96875 -9.703125 C 3.03125 -9.640625 3.070312 -9.585938 3.09375 -9.546875 L 6.8125 -3.71875 L 6.8125 -9.453125 C 6.8125 -9.554688 6.84375 -9.640625 6.90625 -9.703125 C 6.976562 -9.765625 7.066406 -9.796875 7.171875 -9.796875 L 8.59375 -9.796875 C 8.695312 -9.796875 8.78125 -9.765625 8.84375 -9.703125 C 8.914062 -9.640625 8.953125 -9.554688 8.953125 -9.453125 L 8.953125 -0.34375 C 8.953125 -0.25 8.914062 -0.164062 8.84375 -0.09375 C 8.78125 -0.03125 8.695312 0 8.59375 0 L 7.3125 0 C 7.164062 0 7.0625 -0.03125 7 -0.09375 C 6.9375 -0.164062 6.894531 -0.21875 6.875 -0.25 L 3.15625 -5.890625 L 3.15625 -0.34375 C 3.15625 -0.25 3.125 -0.164062 3.0625 -0.09375 C 3 -0.03125 2.914062 0 2.8125 0 Z M 1.375 0 "/></g></g></g><g fill="#ffffff" fill-opacity="1"><g transform="translate(222.974964, 309.079345)"><g><path d="M 1.375 0 C 1.28125 0 1.195312 -0.03125 1.125 -0.09375 C 1.0625 -0.164062 1.03125 -0.25 1.03125 -0.34375 L 1.03125 -9.453125 C 1.03125 -9.554688 1.0625 -9.640625 1.125 -9.703125 C 1.195312 -9.765625 1.28125 -9.796875 1.375 -9.796875 L 7.734375 -9.796875 C 7.828125 -9.796875 7.90625 -9.765625 7.96875 -9.703125 C 8.039062 -9.640625 8.078125 -9.554688 8.078125 -9.453125 L 8.078125 -8.328125 C 8.078125 -8.222656 8.039062 -8.140625 7.96875 -8.078125 C 7.90625 -8.015625 7.828125 -7.984375 7.734375 -7.984375 L 3.1875 -7.984375 L 3.1875 -5.796875 L 7.421875 -5.796875 C 7.523438 -5.796875 7.609375 -5.757812 7.671875 -5.6875 C 7.734375 -5.625 7.765625 -5.546875 7.765625 -5.453125 L 7.765625 -4.40625 C 7.765625 -4.3125 7.734375 -4.226562 7.671875 -4.15625 C 7.609375 -4.09375 7.523438 -4.0625 7.421875 -4.0625 L 3.1875 -4.0625 L 3.1875 -1.8125 L 7.84375 -1.8125 C 7.945312 -1.8125 8.03125 -1.78125 8.09375 -1.71875 C 8.15625 -1.65625 8.1875 -1.570312 8.1875 -1.46875 L 8.1875 -0.34375 C 8.1875 -0.25 8.15625 -0.164062 8.09375 -0.09375 C 8.03125 -0.03125 7.945312 0 7.84375 0 Z M 1.375 0 "/></g></g></g><g fill="#ffffff" fill-opacity="1"><g transform="translate(238.104041, 309.079345)"><g><path d="M 1.375 0 C 1.28125 0 1.195312 -0.03125 1.125 -0.09375 C 1.0625 -0.164062 1.03125 -0.25 1.03125 -0.34375 L 1.03125 -9.453125 C 1.03125 -9.554688 1.0625 -9.640625 1.125 -9.703125 C 1.195312 -9.765625 1.28125 -9.796875 1.375 -9.796875 L 7.734375 -9.796875 C 7.828125 -9.796875 7.90625 -9.765625 7.96875 -9.703125 C 8.039062 -9.640625 8.078125 -9.554688 8.078125 -9.453125 L 8.078125 -8.328125 C 8.078125 -8.222656 8.039062 -8.140625 7.96875 -8.078125 C 7.90625 -8.015625 7.828125 -7.984375 7.734375 -7.984375 L 3.1875 -7.984375 L 3.1875 -5.796875 L 7.421875 -5.796875 C 7.523438 -5.796875 7.609375 -5.757812 7.671875 -5.6875 C 7.734375 -5.625 7.765625 -5.546875 7.765625 -5.453125 L 7.765625 -4.40625 C 7.765625 -4.3125 7.734375 -4.226562 7.671875 -4.15625 C 7.609375 -4.09375 7.523438 -4.0625 7.421875 -4.0625 L 3.1875 -4.0625 L 3.1875 -1.8125 L 7.84375 -1.8125 C 7.945312 -1.8125 8.03125 -1.78125 8.09375 -1.71875 C 8.15625 -1.65625 8.1875 -1.570312 8.1875 -1.46875 L 8.1875 -0.34375 C 8.1875 -0.25 8.15625 -0.164062 8.09375 -0.09375 C 8.03125 -0.03125 7.945312 0 7.84375 0 Z M 1.375 0 "/></g></g></g><g fill="#ffffff" fill-opacity="1"><g transform="translate(253.233118, 309.079345)"><g><path d="M 1.375 0 C 1.28125 0 1.195312 -0.03125 1.125 -0.09375 C 1.0625 -0.164062 1.03125 -0.25 1.03125 -0.34375 L 1.03125 -9.453125 C 1.03125 -9.554688 1.0625 -9.640625 1.125 -9.703125 C 1.195312 -9.765625 1.28125 -9.796875 1.375 -9.796875 L 5.09375 -9.796875 C 6.257812 -9.796875 7.175781 -9.523438 7.84375 -8.984375 C 8.519531 -8.453125 8.859375 -7.679688 8.859375 -6.671875 C 8.859375 -5.992188 8.691406 -5.425781 8.359375 -4.96875 C 8.035156 -4.507812 7.601562 -4.171875 7.0625 -3.953125 L 9.046875 -0.453125 C 9.078125 -0.390625 9.09375 -0.335938 9.09375 -0.296875 C 9.09375 -0.222656 9.0625 -0.15625 9 -0.09375 C 8.9375 -0.03125 8.867188 0 8.796875 0 L 7.21875 0 C 7.050781 0 6.925781 -0.0390625 6.84375 -0.125 C 6.757812 -0.21875 6.695312 -0.300781 6.65625 -0.375 L 4.953125 -3.578125 L 3.265625 -3.578125 L 3.265625 -0.34375 C 3.265625 -0.25 3.226562 -0.164062 3.15625 -0.09375 C 3.09375 -0.03125 3.007812 0 2.90625 0 Z M 3.265625 -5.359375 L 5.0625 -5.359375 C 5.570312 -5.359375 5.945312 -5.472656 6.1875 -5.703125 C 6.4375 -5.941406 6.5625 -6.269531 6.5625 -6.6875 C 6.5625 -7.113281 6.441406 -7.445312 6.203125 -7.6875 C 5.960938 -7.925781 5.582031 -8.046875 5.0625 -8.046875 L 3.265625 -8.046875 Z M 3.265625 -5.359375 "/></g></g></g></svg>